<?xml version="1.0" encoding="utf-8"?>
<!-- Generator: Adobe Illustrator 18.1.1, SVG Export Plug-In . SVG Version: 6.00 Build 0)  -->
<svg version="1.1" id="图层_1" xmlns="http://www.w3.org/2000/svg" xmlns:xlink="http://www.w3.org/1999/xlink" x="0px" y="0px"
	 viewBox="0 0 1245 773" enable-background="new 0 0 1245 773" xml:space="preserve">
<g>
	<defs>
		<rect id="SVGID_1_" y="31.4" width="1959.3" height="1102.1"/>
	</defs>
	<clipPath id="SVGID_2_">
		<use xlink:href="#SVGID_1_"  overflow="visible"/>
	</clipPath>
	<g clip-path="url(#SVGID_2_)">
		<path fill="#C9DAF8" d="M36.8,162.1h1163.3v317.3H36.8L36.8,162.1z"/>
		<path fill-opacity="0" d="M338.5,276.1v33.8h203.4v33.7"/>
		<path fill="none" stroke="#595959" stroke-linejoin="round" stroke-miterlimit="10" d="M338.5,276.1v33.8h203.4v21.5"/>
		<path fill="#595959" stroke="#595959" stroke-miterlimit="10" d="M538.5,331.4l3.4,9.3l3.4-9.3H538.5z"/>
		<path fill-opacity="0" d="M338.5,276.1v33.8h462.1v33.7"/>
		<path fill="none" stroke="#595959" stroke-linejoin="round" stroke-miterlimit="10" d="M338.5,276.1v33.8h462.1v21.5"/>
		<path fill="#595959" stroke="#595959" stroke-miterlimit="10" d="M797.2,331.4l3.4,9.3l3.4-9.3H797.2z"/>
		<path fill-opacity="0" d="M338.5,276.1v33.8h720.7v33.7"/>
		<path fill="none" stroke="#595959" stroke-linejoin="round" stroke-miterlimit="10" d="M338.5,276.1v33.8h720.7v21.5"/>
		<path fill="#595959" stroke="#595959" stroke-miterlimit="10" d="M1055.9,331.4l3.4,9.3l3.4-9.3H1055.9z"/>
		<path fill-opacity="0" d="M338.5,276.1v33.8H225.3v33.7"/>
		<path fill="none" stroke="#595959" stroke-linejoin="round" stroke-miterlimit="10" d="M338.5,276.1v33.8H225.3v21.5"/>
		<path fill="#595959" stroke="#595959" stroke-miterlimit="10" d="M221.9,331.4l3.4,9.3l3.4-9.3H221.9z"/>
		<path fill="#EA9999" d="M95.9,563H400l16,16v80.2l0,0H111.9l-16-16C95.9,643.3,95.9,563,95.9,563z"/>
		<path fill="none" stroke="#FF0000" stroke-linejoin="round" stroke-miterlimit="10" d="M95.9,563H400l16,16v80.2l0,0H111.9l-16-16
			C95.9,643.3,95.9,563,95.9,563z"/>
		<path d="M137.1,625.3V598h10.2c2.1,0,3.8,0.3,5,0.8c1.3,0.6,2.2,1.4,2.9,2.6c0.7,1.1,1.1,2.3,1.1,3.6c0,1.2-0.3,2.3-1,3.3
			c-0.6,1-1.6,1.8-2.8,2.5c1.6,0.5,2.9,1.3,3.8,2.5s1.3,2.5,1.3,4.1c0,1.3-0.3,2.5-0.8,3.6c-0.5,1.1-1.2,1.9-2,2.5
			c-0.8,0.6-1.8,1.1-3,1.4c-1.2,0.3-2.7,0.4-4.4,0.4H137.1z M140.7,609.5h5.9c1.6,0,2.8-0.1,3.4-0.3c0.9-0.3,1.6-0.7,2.1-1.4
			c0.5-0.6,0.7-1.4,0.7-2.4c0-0.9-0.2-1.7-0.7-2.4c-0.4-0.7-1-1.2-1.8-1.4c-0.8-0.3-2.2-0.4-4.1-0.4h-5.4V609.5z M140.7,622.1h6.8
			c1.2,0,2,0,2.5-0.1c0.8-0.1,1.5-0.4,2.1-0.7c0.6-0.4,1-0.9,1.4-1.5c0.4-0.7,0.5-1.4,0.5-2.3c0-1-0.3-1.9-0.8-2.6
			c-0.5-0.7-1.2-1.3-2.2-1.6c-0.9-0.3-2.2-0.5-4-0.5h-6.3V622.1z M161,615.4c0-3.7,1-6.4,3-8.1c1.7-1.5,3.8-2.2,6.2-2.2
			c2.7,0,4.9,0.9,6.7,2.7c1.7,1.8,2.6,4.2,2.6,7.4c0,2.5-0.4,4.5-1.1,6c-0.8,1.4-1.9,2.6-3.3,3.4c-1.4,0.8-3,1.2-4.8,1.2
			c-2.8,0-5-0.9-6.7-2.6C161.8,621.3,161,618.7,161,615.4z M164.4,615.4c0,2.5,0.5,4.4,1.6,5.7c1.1,1.3,2.5,1.9,4.2,1.9
			c1.7,0,3-0.6,4.1-1.9c1.1-1.3,1.7-3.2,1.7-5.8c0-2.4-0.6-4.3-1.7-5.5s-2.5-1.9-4.1-1.9c-1.7,0-3.1,0.6-4.2,1.9
			C164.9,611,164.4,612.9,164.4,615.4z M181.1,625.3l7.2-10.3l-6.7-9.5h4.2l3,4.6c0.6,0.9,1,1.6,1.4,2.2c0.6-0.8,1.1-1.5,1.5-2.2
			l3.3-4.7h4l-6.8,9.3l7.3,10.5h-4.1l-4.1-6.1l-1.1-1.7l-5.2,7.8H181.1z"/>
		<path d="M215.3,615.3v-4.6h11.9v10.8c-1.1,1.1-2.8,2.1-5,3c-2.2,0.9-4.4,1.3-6.6,1.3c-2.8,0-5.3-0.6-7.5-1.8
			c-2.1-1.2-3.7-2.9-4.8-5.1c-1.1-2.2-1.6-4.7-1.6-7.3c0-2.8,0.6-5.4,1.8-7.6c1.2-2.2,2.9-3.9,5.2-5.1c1.7-0.9,3.9-1.3,6.5-1.3
			c3.4,0,6,0.7,7.9,2.1c1.9,1.4,3.1,3.4,3.7,5.9l-5.5,1c-0.4-1.3-1.1-2.4-2.2-3.2c-1.1-0.8-2.4-1.2-4-1.2c-2.4,0-4.3,0.8-5.8,2.3
			c-1.4,1.5-2.1,3.8-2.1,6.8c0,3.2,0.7,5.7,2.1,7.3c1.4,1.6,3.3,2.4,5.7,2.4c1.1,0,2.3-0.2,3.4-0.7c1.2-0.4,2.2-1,3-1.7v-3.4H215.3z
			 M243.7,619l5.2,0.9c-0.7,1.9-1.7,3.4-3.2,4.4c-1.4,1-3.3,1.5-5.4,1.5c-3.4,0-6-1.1-7.6-3.4c-1.3-1.8-1.9-4.1-1.9-6.8
			c0-3.3,0.9-5.8,2.6-7.7c1.7-1.8,3.9-2.8,6.5-2.8c2.9,0,5.3,1,7,2.9c1.7,1.9,2.5,4.9,2.4,8.9h-13.1c0,1.6,0.5,2.8,1.2,3.6
			c0.8,0.9,1.8,1.3,3,1.3c0.8,0,1.5-0.2,2-0.7C243,620.7,243.4,620,243.7,619z M244,613.7c0-1.5-0.4-2.7-1.2-3.4
			c-0.7-0.8-1.6-1.2-2.7-1.2c-1.1,0-2.1,0.4-2.8,1.2s-1.1,2-1.1,3.4H244z M252.2,615.2c0-1.7,0.4-3.4,1.3-5c0.9-1.6,2.1-2.9,3.6-3.7
			c1.6-0.9,3.3-1.3,5.3-1.3c3,0,5.4,1,7.3,2.9s2.9,4.4,2.9,7.4c0,3-1,5.5-2.9,7.4c-1.9,2-4.4,2.9-7.3,2.9c-1.8,0-3.5-0.4-5.2-1.2
			c-1.6-0.8-2.9-2-3.7-3.6C252.7,619.3,252.2,617.4,252.2,615.2z M257.6,615.4c0,2,0.5,3.5,1.4,4.5c0.9,1,2.1,1.5,3.4,1.5
			c1.4,0,2.5-0.5,3.4-1.5c0.9-1,1.4-2.6,1.4-4.6c0-1.9-0.5-3.4-1.4-4.5c-0.9-1-2.1-1.6-3.4-1.6c-1.4,0-2.5,0.5-3.4,1.6
			C258,612,257.6,613.5,257.6,615.4z M276.3,605.6h4.8v2.7c1.7-2.1,3.8-3.1,6.2-3.1c1.3,0,2.4,0.3,3.3,0.8c0.9,0.5,1.7,1.3,2.3,2.3
			c0.9-1,1.8-1.8,2.8-2.3c1-0.5,2.1-0.8,3.2-0.8c1.4,0,2.7,0.3,3.7,0.9c1,0.6,1.8,1.4,2.3,2.6c0.4,0.9,0.5,2.2,0.5,4.1v12.6h-5.2
			V614c0-2-0.2-3.2-0.5-3.8c-0.5-0.7-1.2-1.1-2.2-1.1c-0.7,0-1.4,0.2-2.1,0.7c-0.6,0.4-1.1,1.1-1.4,2c-0.3,0.9-0.4,2.2-0.4,4.1v9.5
			h-5.2v-10.8c0-1.9-0.1-3.2-0.3-3.7c-0.2-0.6-0.5-1-0.9-1.2c-0.4-0.3-0.9-0.4-1.6-0.4c-0.8,0-1.5,0.2-2.2,0.7
			c-0.6,0.4-1.1,1.1-1.4,1.9c-0.3,0.8-0.4,2.2-0.4,4.1v9.6h-5.2V605.6z M322,619l5.2,0.9c-0.7,1.9-1.7,3.4-3.2,4.4
			c-1.4,1-3.3,1.5-5.4,1.5c-3.4,0-6-1.1-7.6-3.4c-1.3-1.8-1.9-4.1-1.9-6.8c0-3.3,0.9-5.8,2.6-7.7c1.7-1.8,3.9-2.8,6.5-2.8
			c2.9,0,5.3,1,7,2.9s2.5,4.9,2.4,8.9h-13.1c0,1.6,0.5,2.8,1.2,3.6c0.8,0.9,1.8,1.3,3,1.3c0.8,0,1.5-0.2,2-0.7
			C321.3,620.7,321.7,620,322,619z M322.3,613.7c0-1.5-0.4-2.7-1.2-3.4c-0.7-0.8-1.6-1.2-2.7-1.2c-1.1,0-2.1,0.4-2.8,1.2
			s-1.1,2-1.1,3.4H322.3z M340.8,605.6v4.1h-3.6v8c0,1.6,0,2.6,0.1,2.8c0.1,0.3,0.2,0.5,0.4,0.6c0.3,0.2,0.6,0.3,0.9,0.3
			c0.5,0,1.2-0.2,2.1-0.5l0.4,4.1c-1.2,0.5-2.6,0.8-4.1,0.8c-1,0-1.8-0.2-2.6-0.5c-0.7-0.3-1.3-0.7-1.7-1.2c-0.3-0.5-0.6-1.2-0.7-2
			c-0.1-0.6-0.2-1.8-0.2-3.7v-8.6h-2.4v-4.1h2.4v-3.9l5.3-3.1v7H340.8z M349.4,625.3h-5.2v-19.7h4.8v2.8c0.8-1.3,1.6-2.2,2.2-2.6
			c0.7-0.4,1.4-0.6,2.3-0.6c1.2,0,2.3,0.3,3.4,1l-1.6,4.6c-0.9-0.6-1.7-0.9-2.5-0.9c-0.7,0-1.3,0.2-1.8,0.6
			c-0.5,0.4-0.9,1.1-1.2,2.2c-0.3,1-0.4,3.2-0.4,6.6V625.3z M356.7,605.6h5.5l4.8,14l4.6-14h5.4l-7,19l-1.2,3.4
			c-0.4,1.1-0.9,2-1.3,2.6c-0.4,0.6-0.9,1.1-1.4,1.5c-0.5,0.4-1.2,0.7-2,0.9c-0.8,0.2-1.7,0.3-2.7,0.3c-1,0-2-0.1-3-0.3l-0.4-4.1
			c0.8,0.2,1.5,0.3,2.2,0.3c1.2,0,2.1-0.4,2.7-1.1c0.6-0.7,1.1-1.6,1.4-2.7L356.7,605.6z"/>
		<path fill="#B6D7A8" d="M559.2,614.2L559.2,614.2c0-10.1,29.8-19.8,82.9-27C695.2,580,767.1,576,842.2,576l0,0
			c156.3,0,283,17.1,283,38.2l0,0c0,21.1-126.7,38.2-283,38.2l0,0C685.9,652.3,559.2,635.2,559.2,614.2z"/>
		<path fill="none" stroke="#38761D" stroke-linejoin="round" stroke-miterlimit="10" d="M559.2,614.2L559.2,614.2
			c0-10.1,29.8-19.8,82.9-27C695.2,580,767.1,576,842.2,576l0,0c156.3,0,283,17.1,283,38.2l0,0c0,21.1-126.7,38.2-283,38.2l0,0
			C685.9,652.3,559.2,635.2,559.2,614.2z"/>
		<path d="M663.3,628.3V601h5.4l6.4,19.3c0.6,1.8,1,3.2,1.3,4.1c0.3-1,0.8-2.5,1.4-4.4l6.5-19h4.8v27.3h-3.5v-22.8l-7.9,22.8h-3.3
			l-7.9-23.2v23.2H663.3z M708.2,621.9l3.4,0.4c-0.6,2-1.6,3.6-3,4.7c-1.5,1.1-3.3,1.7-5.6,1.7c-2.9,0-5.2-0.9-6.9-2.6
			c-1.7-1.8-2.5-4.3-2.5-7.5c0-3.3,0.9-5.9,2.6-7.7c1.7-1.8,3.9-2.7,6.7-2.7c2.6,0,4.8,0.9,6.4,2.7c1.7,1.8,2.5,4.3,2.5,7.6
			c0,0.2,0,0.5,0,0.9H697c0.1,2.2,0.7,3.8,1.8,5c1.1,1.1,2.5,1.7,4.1,1.7c1.2,0,2.3-0.3,3.2-1C707,624.4,707.7,623.3,708.2,621.9z
			 M697.2,616.5h11c-0.1-1.7-0.6-2.9-1.3-3.7c-1.1-1.3-2.4-1.9-4.1-1.9c-1.5,0-2.8,0.5-3.9,1.6C697.9,613.4,697.3,614.8,697.2,616.5
			z M714.5,622.4l3.3-0.5c0.2,1.3,0.7,2.3,1.5,3.1c0.9,0.7,2,1.1,3.6,1.1s2.7-0.3,3.4-0.9c0.7-0.6,1.1-1.4,1.1-2.2
			c0-0.7-0.3-1.3-1-1.8c-0.4-0.3-1.6-0.7-3.4-1.1c-2.5-0.6-4.2-1.2-5.1-1.6c-0.9-0.4-1.6-1.1-2.1-1.8c-0.5-0.8-0.7-1.7-0.7-2.7
			c0-0.9,0.2-1.7,0.6-2.4c0.4-0.8,1-1.4,1.7-1.9c0.5-0.4,1.2-0.7,2.1-1c0.9-0.3,1.9-0.4,2.9-0.4c1.6,0,2.9,0.2,4.1,0.7
			s2,1.1,2.6,1.8c0.6,0.8,1,1.8,1.2,3.1l-3.3,0.4c-0.1-1-0.6-1.8-1.3-2.4c-0.7-0.6-1.7-0.9-3-0.9c-1.6,0-2.7,0.3-3.3,0.8
			c-0.6,0.5-1,1.1-1,1.8c0,0.4,0.1,0.8,0.4,1.2c0.3,0.4,0.7,0.7,1.3,0.9c0.3,0.1,1.3,0.4,2.9,0.9c2.4,0.6,4,1.1,5,1.5
			c0.9,0.4,1.7,1,2.2,1.8c0.5,0.8,0.8,1.7,0.8,2.9c0,1.1-0.3,2.2-1,3.2c-0.6,1-1.6,1.7-2.8,2.3c-1.2,0.5-2.6,0.8-4.2,0.8
			c-2.6,0-4.5-0.5-5.9-1.6C715.7,626.1,714.9,624.5,714.5,622.4z M734.9,628.3V601h3.3v9.8c1.6-1.8,3.5-2.7,5.9-2.7
			c1.5,0,2.7,0.3,3.8,0.9c1.1,0.6,1.9,1.4,2.3,2.4c0.5,1,0.7,2.5,0.7,4.4v12.5h-3.3v-12.5c0-1.7-0.4-2.9-1.1-3.7
			c-0.7-0.8-1.8-1.1-3.1-1.1c-1,0-1.9,0.3-2.8,0.8c-0.9,0.5-1.5,1.2-1.9,2.1c-0.4,0.9-0.5,2.1-0.5,3.6v10.8H734.9z M756.5,628.3V601
			h10.3c1.8,0,3.2,0.1,4.1,0.3c1.3,0.2,2.4,0.7,3.3,1.3c0.9,0.6,1.6,1.5,2.2,2.6c0.6,1.1,0.8,2.4,0.8,3.7c0,2.3-0.7,4.3-2.2,5.9
			c-1.5,1.6-4.1,2.4-8,2.4h-7v11.1H756.5z M760.1,614h7c2.3,0,4-0.4,5-1.3c1-0.9,1.5-2.1,1.5-3.7c0-1.1-0.3-2.1-0.9-2.9
			c-0.6-0.8-1.3-1.3-2.3-1.6c-0.6-0.2-1.7-0.3-3.3-0.3h-7V614z M781.5,628.3V601h3.3v9.8c1.6-1.8,3.5-2.7,5.9-2.7
			c1.5,0,2.7,0.3,3.8,0.9c1.1,0.6,1.9,1.4,2.3,2.4c0.5,1,0.7,2.5,0.7,4.4v12.5h-3.3v-12.5c0-1.7-0.4-2.9-1.1-3.7
			c-0.7-0.8-1.8-1.1-3.1-1.1c-1,0-1.9,0.3-2.8,0.8c-0.9,0.5-1.5,1.2-1.9,2.1c-0.4,0.9-0.5,2.1-0.5,3.6v10.8H781.5z M801.4,618.4
			c0-3.7,1-6.4,3-8.1c1.7-1.5,3.8-2.2,6.2-2.2c2.7,0,4.9,0.9,6.7,2.7c1.7,1.8,2.6,4.2,2.6,7.4c0,2.5-0.4,4.5-1.1,6
			c-0.8,1.4-1.9,2.6-3.3,3.4c-1.4,0.8-3,1.2-4.8,1.2c-2.8,0-5-0.9-6.7-2.6C802.3,624.3,801.4,621.7,801.4,618.4z M804.9,618.4
			c0,2.5,0.5,4.4,1.6,5.7c1.1,1.3,2.5,1.9,4.2,1.9c1.7,0,3-0.6,4.1-1.9c1.1-1.3,1.7-3.2,1.7-5.8c0-2.4-0.6-4.3-1.7-5.5
			c-1.1-1.3-2.5-1.9-4.1-1.9c-1.7,0-3.1,0.6-4.2,1.9C805.4,614,804.9,615.9,804.9,618.4z M823.8,628.3v-19.7h3v2.8
			c1.4-2.2,3.5-3.3,6.3-3.3c1.2,0,2.3,0.2,3.3,0.6c1,0.4,1.7,1,2.2,1.7c0.5,0.7,0.9,1.5,1.1,2.5c0.1,0.6,0.2,1.7,0.2,3.3v12.2h-3.3
			v-12c0-1.4-0.1-2.4-0.4-3c-0.3-0.7-0.7-1.2-1.4-1.6c-0.7-0.4-1.4-0.6-2.3-0.6c-1.4,0-2.7,0.5-3.7,1.4c-1,0.9-1.5,2.6-1.5,5.1v10.8
			H823.8z M844.4,629.9l3.3,0.5c0.1,1,0.5,1.8,1.1,2.2c0.8,0.6,2,0.9,3.4,0.9c1.6,0,2.7-0.3,3.6-0.9c0.9-0.6,1.4-1.5,1.7-2.6
			c0.2-0.7,0.2-2.1,0.2-4.3c-1.4,1.7-3.3,2.6-5.5,2.6c-2.7,0-4.8-1-6.3-2.9c-1.5-2-2.2-4.3-2.2-7c0-1.9,0.3-3.6,1-5.2
			c0.7-1.6,1.7-2.8,3-3.7c1.3-0.9,2.8-1.3,4.6-1.3c2.3,0,4.2,0.9,5.7,2.8v-2.4h3.1v17.1c0,3.1-0.3,5.3-1,6.5c-0.6,1.3-1.6,2.3-3,3
			c-1.3,0.7-3,1.1-5,1.1c-2.3,0-4.2-0.5-5.7-1.6C845,633.7,844.3,632.1,844.4,629.9z M847.1,618.1c0,2.6,0.5,4.5,1.5,5.7
			c1,1.2,2.3,1.8,3.9,1.8c1.5,0,2.8-0.6,3.9-1.8c1-1.2,1.6-3.1,1.6-5.6c0-2.4-0.5-4.2-1.6-5.5c-1.1-1.2-2.3-1.8-3.9-1.8
			c-1.5,0-2.8,0.6-3.8,1.8C847.7,613.9,847.1,615.7,847.1,618.1z"/>
		<path d="M866.4,628.3V601h8.2l4.9,18.6l4.9-18.6h8.3v27.3h-5.1v-21.5l-5.4,21.5h-5.3l-5.4-21.5v21.5H866.4z M902,614.6l-4.8-0.9
			c0.6-1.9,1.5-3.3,2.8-4.2c1.3-0.9,3.2-1.4,5.8-1.4c2.3,0,4.1,0.3,5.2,0.8c1.1,0.6,1.9,1.3,2.4,2.1c0.5,0.9,0.7,2.4,0.7,4.7l0,6.1
			c0,1.7,0.1,3,0.2,3.8c0.2,0.8,0.5,1.7,1,2.6h-5.2c-0.1-0.3-0.3-0.9-0.5-1.5c-0.1-0.3-0.1-0.5-0.2-0.6c-0.9,0.9-1.8,1.5-2.9,2
			c-1,0.4-2.1,0.6-3.3,0.6c-2,0-3.6-0.6-4.8-1.7c-1.2-1.1-1.8-2.5-1.8-4.2c0-1.1,0.3-2.1,0.8-3c0.5-0.9,1.3-1.5,2.2-2
			c1-0.5,2.3-0.9,4.1-1.2c2.4-0.4,4.1-0.9,5.1-1.3v-0.5c0-1-0.2-1.7-0.7-2.2s-1.4-0.6-2.8-0.6c-0.9,0-1.7,0.2-2.2,0.6
			C902.8,613,902.3,613.7,902,614.6z M909,618.8c-0.7,0.2-1.7,0.5-3.2,0.8c-1.4,0.3-2.4,0.6-2.8,0.9c-0.7,0.5-1,1.1-1,1.8
			c0,0.7,0.3,1.4,0.8,1.9c0.6,0.5,1.2,0.8,2.1,0.8c1,0,1.9-0.3,2.7-1c0.6-0.5,1.1-1,1.2-1.7c0.1-0.4,0.2-1.3,0.2-2.6V618.8z
			 M928.4,608.6v4.1h-3.6v8c0,1.6,0,2.6,0.1,2.8c0.1,0.3,0.2,0.5,0.4,0.6c0.3,0.2,0.6,0.3,0.9,0.3c0.5,0,1.2-0.2,2.1-0.5l0.4,4.1
			c-1.2,0.5-2.6,0.8-4.1,0.8c-1,0-1.8-0.2-2.6-0.5c-0.7-0.3-1.3-0.7-1.7-1.2c-0.3-0.5-0.6-1.2-0.7-2c-0.1-0.6-0.2-1.8-0.2-3.7v-8.6
			h-2.4v-4.1h2.4v-3.9l5.3-3.1v7H928.4z M943.4,622l5.2,0.9c-0.7,1.9-1.7,3.4-3.2,4.4c-1.4,1-3.3,1.5-5.4,1.5c-3.4,0-6-1.1-7.6-3.4
			c-1.3-1.8-1.9-4.1-1.9-6.8c0-3.3,0.9-5.8,2.6-7.7c1.7-1.8,3.9-2.8,6.5-2.8c2.9,0,5.3,1,7,2.9c1.7,1.9,2.5,4.9,2.4,8.9h-13.1
			c0,1.6,0.5,2.8,1.2,3.6c0.8,0.9,1.8,1.3,3,1.3c0.8,0,1.5-0.2,2-0.7C942.7,623.7,943.1,623,943.4,622z M943.7,616.7
			c0-1.5-0.4-2.7-1.2-3.4c-0.7-0.8-1.6-1.2-2.7-1.2c-1.1,0-2.1,0.4-2.8,1.2c-0.7,0.8-1.1,2-1.1,3.4H943.7z M958.2,628.3h-5.2v-19.7
			h4.8v2.8c0.8-1.3,1.6-2.2,2.2-2.6c0.7-0.4,1.4-0.6,2.3-0.6c1.2,0,2.3,0.3,3.4,1l-1.6,4.6c-0.9-0.6-1.7-0.9-2.5-0.9
			c-0.7,0-1.3,0.2-1.8,0.6s-0.9,1.1-1.2,2.2c-0.3,1-0.4,3.2-0.4,6.6V628.3z M968,605.9V601h5.2v4.8H968z M968,628.3v-19.7h5.2v19.7
			H968z M982.4,614.6l-4.8-0.9c0.6-1.9,1.5-3.3,2.8-4.2c1.3-0.9,3.2-1.4,5.8-1.4c2.3,0,4.1,0.3,5.2,0.8c1.1,0.6,1.9,1.3,2.4,2.1
			c0.5,0.9,0.7,2.4,0.7,4.7l0,6.1c0,1.7,0.1,3,0.2,3.8c0.2,0.8,0.5,1.7,1,2.6h-5.2c-0.1-0.3-0.3-0.9-0.5-1.5
			c-0.1-0.3-0.1-0.5-0.2-0.6c-0.9,0.9-1.8,1.5-2.9,2c-1,0.4-2.1,0.6-3.3,0.6c-2,0-3.6-0.6-4.8-1.7c-1.2-1.1-1.8-2.5-1.8-4.2
			c0-1.1,0.3-2.1,0.8-3c0.5-0.9,1.3-1.5,2.2-2c1-0.5,2.3-0.9,4.1-1.2c2.4-0.4,4.1-0.9,5.1-1.3v-0.5c0-1-0.2-1.7-0.7-2.2
			c-0.5-0.4-1.4-0.6-2.8-0.6c-0.9,0-1.7,0.2-2.2,0.6C983.2,613,982.8,613.7,982.4,614.6z M989.4,618.8c-0.7,0.2-1.7,0.5-3.2,0.8
			c-1.4,0.3-2.4,0.6-2.8,0.9c-0.7,0.5-1,1.1-1,1.8c0,0.7,0.3,1.4,0.8,1.9c0.6,0.5,1.2,0.8,2.1,0.8c1,0,1.9-0.3,2.7-1
			c0.6-0.5,1.1-1,1.2-1.7c0.1-0.4,0.2-1.3,0.2-2.6V618.8z M999.7,628.3V601h5.2v27.3H999.7z"/>
		<path fill="#A4C2F4" d="M431.9,356.1L431.9,356.1c0-6.9,5.6-12.5,12.5-12.5h195.1c3.3,0,6.5,1.3,8.8,3.7c2.3,2.3,3.7,5.5,3.7,8.8
			v49.9c0,6.9-5.6,12.5-12.5,12.5H444.4c-6.9,0-12.5-5.6-12.5-12.5V356.1z"/>
		<path fill="none" stroke="#0000FF" stroke-linejoin="round" stroke-miterlimit="10" d="M431.9,356.1L431.9,356.1
			c0-6.9,5.6-12.5,12.5-12.5h195.1c3.3,0,6.5,1.3,8.8,3.7c2.3,2.3,3.7,5.5,3.7,8.8v49.9c0,6.9-5.6,12.5-12.5,12.5H444.4
			c-6.9,0-12.5-5.6-12.5-12.5V356.1z"/>
		<path d="M498.2,395.2V368h5.4l6.4,19.3c0.6,1.8,1,3.2,1.3,4.1c0.3-1,0.8-2.5,1.4-4.4l6.5-19h4.8v27.3h-3.5v-22.8l-7.9,22.8h-3.3
			l-7.9-23.2v23.2H498.2z M543.1,388.9l3.4,0.4c-0.6,2-1.6,3.6-3,4.7c-1.5,1.1-3.3,1.7-5.6,1.7c-2.9,0-5.2-0.9-6.9-2.6
			c-1.7-1.8-2.5-4.3-2.5-7.5c0-3.3,0.9-5.9,2.6-7.7c1.7-1.8,3.9-2.7,6.7-2.7c2.6,0,4.8,0.9,6.4,2.7c1.7,1.8,2.5,4.3,2.5,7.6
			c0,0.2,0,0.5,0,0.9h-14.7c0.1,2.2,0.7,3.8,1.8,5c1.1,1.1,2.5,1.7,4.1,1.7c1.2,0,2.3-0.3,3.2-1
			C541.9,391.3,542.6,390.3,543.1,388.9z M532.1,383.5h11c-0.1-1.7-0.6-2.9-1.3-3.7c-1.1-1.3-2.4-1.9-4.1-1.9
			c-1.5,0-2.8,0.5-3.9,1.6C532.8,380.4,532.2,381.7,532.1,383.5z M549.4,389.3l3.3-0.5c0.2,1.3,0.7,2.3,1.5,3.1
			c0.9,0.7,2,1.1,3.6,1.1c1.5,0,2.7-0.3,3.4-0.9c0.7-0.6,1.1-1.4,1.1-2.2c0-0.7-0.3-1.3-1-1.8c-0.4-0.3-1.6-0.7-3.4-1.1
			c-2.5-0.6-4.2-1.2-5.1-1.6c-0.9-0.4-1.6-1.1-2.1-1.8c-0.5-0.8-0.7-1.7-0.7-2.7c0-0.9,0.2-1.7,0.6-2.4c0.4-0.8,1-1.4,1.7-1.9
			c0.5-0.4,1.2-0.7,2.1-1c0.9-0.3,1.9-0.4,2.9-0.4c1.6,0,2.9,0.2,4.1,0.7c1.2,0.4,2,1.1,2.6,1.8c0.6,0.8,1,1.8,1.2,3.1l-3.3,0.4
			c-0.1-1-0.6-1.8-1.3-2.4c-0.7-0.6-1.7-0.9-3-0.9c-1.6,0-2.7,0.3-3.3,0.8c-0.6,0.5-1,1.1-1,1.8c0,0.4,0.1,0.8,0.4,1.2
			c0.3,0.4,0.7,0.7,1.3,0.9c0.3,0.1,1.3,0.4,2.9,0.9c2.4,0.6,4,1.1,5,1.5c0.9,0.4,1.7,1,2.2,1.8c0.5,0.8,0.8,1.7,0.8,2.9
			c0,1.1-0.3,2.2-1,3.2c-0.6,1-1.6,1.7-2.8,2.3c-1.2,0.5-2.6,0.8-4.2,0.8c-2.6,0-4.5-0.5-5.9-1.6C550.6,393,549.8,391.4,549.4,389.3
			z M569.8,395.2V368h3.3v9.8c1.6-1.8,3.5-2.7,5.9-2.7c1.5,0,2.7,0.3,3.8,0.9c1.1,0.6,1.9,1.4,2.3,2.4c0.5,1,0.7,2.5,0.7,4.4v12.5
			h-3.3v-12.5c0-1.7-0.4-2.9-1.1-3.7c-0.7-0.8-1.8-1.1-3.1-1.1c-1,0-1.9,0.3-2.8,0.8c-0.9,0.5-1.5,1.2-1.9,2.1
			c-0.4,0.9-0.5,2.1-0.5,3.6v10.8H569.8z"/>
		<path fill="#A4C2F4" d="M690.6,356.1L690.6,356.1c0-6.9,5.6-12.5,12.5-12.5h195.1c3.3,0,6.5,1.3,8.8,3.7c2.3,2.3,3.7,5.5,3.7,8.8
			v49.9c0,6.9-5.6,12.5-12.5,12.5H703c-6.9,0-12.5-5.6-12.5-12.5V356.1z"/>
		<path fill="none" stroke="#0000FF" stroke-linejoin="round" stroke-miterlimit="10" d="M690.6,356.1L690.6,356.1
			c0-6.9,5.6-12.5,12.5-12.5h195.1c3.3,0,6.5,1.3,8.8,3.7c2.3,2.3,3.7,5.5,3.7,8.8v49.9c0,6.9-5.6,12.5-12.5,12.5H703
			c-6.9,0-12.5-5.6-12.5-12.5V356.1z"/>
		<path d="M756.9,395.2V368h5.4l6.4,19.3c0.6,1.8,1,3.2,1.3,4.1c0.3-1,0.8-2.5,1.4-4.4l6.5-19h4.8v27.3h-3.5v-22.8l-7.9,22.8h-3.3
			l-7.9-23.2v23.2H756.9z M801.8,388.9l3.4,0.4c-0.6,2-1.6,3.6-3,4.7c-1.5,1.1-3.3,1.7-5.6,1.7c-2.9,0-5.2-0.9-6.9-2.6
			c-1.7-1.8-2.5-4.3-2.5-7.5c0-3.3,0.9-5.9,2.6-7.7c1.7-1.8,3.9-2.7,6.7-2.7c2.6,0,4.8,0.9,6.4,2.7c1.7,1.8,2.5,4.3,2.5,7.6
			c0,0.2,0,0.5,0,0.9h-14.7c0.1,2.2,0.7,3.8,1.8,5c1.1,1.1,2.5,1.7,4.1,1.7c1.2,0,2.3-0.3,3.2-1
			C800.6,391.3,801.3,390.3,801.8,388.9z M790.8,383.5h11c-0.1-1.7-0.6-2.9-1.3-3.7c-1.1-1.3-2.4-1.9-4.1-1.9
			c-1.5,0-2.8,0.5-3.9,1.6C791.5,380.4,790.9,381.7,790.8,383.5z M808.1,389.3l3.3-0.5c0.2,1.3,0.7,2.3,1.5,3.1
			c0.9,0.7,2,1.1,3.6,1.1c1.5,0,2.7-0.3,3.4-0.9c0.7-0.6,1.1-1.4,1.1-2.2c0-0.7-0.3-1.3-1-1.8c-0.4-0.3-1.6-0.7-3.4-1.1
			c-2.5-0.6-4.2-1.2-5.1-1.6c-0.9-0.4-1.6-1.1-2.1-1.8c-0.5-0.8-0.7-1.7-0.7-2.7c0-0.9,0.2-1.7,0.6-2.4c0.4-0.8,1-1.4,1.7-1.9
			c0.5-0.4,1.2-0.7,2.1-1c0.9-0.3,1.9-0.4,2.9-0.4c1.6,0,2.9,0.2,4.1,0.7c1.2,0.4,2,1.1,2.6,1.8c0.6,0.8,1,1.8,1.2,3.1l-3.3,0.4
			c-0.1-1-0.6-1.8-1.3-2.4c-0.7-0.6-1.7-0.9-3-0.9c-1.6,0-2.7,0.3-3.3,0.8c-0.6,0.5-1,1.1-1,1.8c0,0.4,0.1,0.8,0.4,1.2
			c0.3,0.4,0.7,0.7,1.3,0.9c0.3,0.1,1.3,0.4,2.9,0.9c2.4,0.6,4,1.1,5,1.5c0.9,0.4,1.7,1,2.2,1.8c0.5,0.8,0.8,1.7,0.8,2.9
			c0,1.1-0.3,2.2-1,3.2c-0.6,1-1.6,1.7-2.8,2.3c-1.2,0.5-2.6,0.8-4.2,0.8c-2.6,0-4.5-0.5-5.9-1.6C809.3,393,808.5,391.4,808.1,389.3
			z M828.5,395.2V368h3.3v9.8c1.6-1.8,3.5-2.7,5.9-2.7c1.5,0,2.7,0.3,3.8,0.9c1.1,0.6,1.9,1.4,2.3,2.4c0.5,1,0.7,2.5,0.7,4.4v12.5
			h-3.3v-12.5c0-1.7-0.4-2.9-1.1-3.7c-0.7-0.8-1.8-1.1-3.1-1.1c-1,0-1.9,0.3-2.8,0.8c-0.9,0.5-1.5,1.2-1.9,2.1
			c-0.4,0.9-0.5,2.1-0.5,3.6v10.8H828.5z"/>
		<path fill="#A4C2F4" d="M949.2,356.1L949.2,356.1c0-6.9,5.6-12.5,12.5-12.5h195.1c3.3,0,6.5,1.3,8.8,3.7s3.7,5.5,3.7,8.8v49.9
			c0,6.9-5.6,12.5-12.5,12.5H961.7c-6.9,0-12.5-5.6-12.5-12.5V356.1z"/>
		<path fill="none" stroke="#0000FF" stroke-linejoin="round" stroke-miterlimit="10" d="M949.2,356.1L949.2,356.1
			c0-6.9,5.6-12.5,12.5-12.5h195.1c3.3,0,6.5,1.3,8.8,3.7s3.7,5.5,3.7,8.8v49.9c0,6.9-5.6,12.5-12.5,12.5H961.7
			c-6.9,0-12.5-5.6-12.5-12.5V356.1z"/>
		<path d="M1015.5,395.2V368h5.4l6.4,19.3c0.6,1.8,1,3.2,1.3,4.1c0.3-1,0.8-2.5,1.4-4.4l6.5-19h4.8v27.3h-3.5v-22.8l-7.9,22.8h-3.3
			L1019,372v23.2H1015.5z M1060.5,388.9l3.4,0.4c-0.6,2-1.6,3.6-3,4.7c-1.5,1.1-3.3,1.7-5.6,1.7c-2.9,0-5.2-0.9-6.9-2.6
			c-1.7-1.8-2.5-4.3-2.5-7.5c0-3.3,0.9-5.9,2.6-7.7c1.7-1.8,3.9-2.7,6.7-2.7c2.6,0,4.8,0.9,6.4,2.7c1.7,1.8,2.5,4.3,2.5,7.6
			c0,0.2,0,0.5,0,0.9h-14.7c0.1,2.2,0.7,3.8,1.8,5c1.1,1.1,2.5,1.7,4.1,1.7c1.2,0,2.3-0.3,3.2-1
			C1059.3,391.3,1060,390.3,1060.5,388.9z M1049.5,383.5h11c-0.1-1.7-0.6-2.9-1.3-3.7c-1.1-1.3-2.4-1.9-4.1-1.9
			c-1.5,0-2.8,0.5-3.9,1.6C1050.1,380.4,1049.6,381.7,1049.5,383.5z M1066.8,389.3l3.3-0.5c0.2,1.3,0.7,2.3,1.5,3.1
			c0.9,0.7,2,1.1,3.6,1.1s2.7-0.3,3.4-0.9c0.7-0.6,1.1-1.4,1.1-2.2c0-0.7-0.3-1.3-1-1.8c-0.4-0.3-1.6-0.7-3.4-1.1
			c-2.5-0.6-4.2-1.2-5.1-1.6c-0.9-0.4-1.6-1.1-2.1-1.8c-0.5-0.8-0.7-1.7-0.7-2.7c0-0.9,0.2-1.7,0.6-2.4c0.4-0.8,1-1.4,1.7-1.9
			c0.5-0.4,1.2-0.7,2.1-1c0.9-0.3,1.9-0.4,2.9-0.4c1.6,0,2.9,0.2,4.1,0.7c1.2,0.4,2,1.1,2.6,1.8c0.6,0.8,1,1.8,1.2,3.1l-3.3,0.4
			c-0.1-1-0.6-1.8-1.3-2.4c-0.7-0.6-1.7-0.9-3-0.9c-1.6,0-2.7,0.3-3.3,0.8c-0.6,0.5-1,1.1-1,1.8c0,0.4,0.1,0.8,0.4,1.2
			c0.3,0.4,0.7,0.7,1.3,0.9c0.3,0.1,1.3,0.4,2.9,0.9c2.4,0.6,4,1.1,5,1.5c0.9,0.4,1.7,1,2.2,1.8c0.5,0.8,0.8,1.7,0.8,2.9
			c0,1.1-0.3,2.2-1,3.2c-0.6,1-1.6,1.7-2.8,2.3c-1.2,0.5-2.6,0.8-4.2,0.8c-2.6,0-4.5-0.5-5.9-1.6
			C1068,393,1067.1,391.4,1066.8,389.3z M1087.2,395.2V368h3.3v9.8c1.6-1.8,3.5-2.7,5.9-2.7c1.5,0,2.7,0.3,3.8,0.9
			c1.1,0.6,1.9,1.4,2.3,2.4c0.5,1,0.7,2.5,0.7,4.4v12.5h-3.3v-12.5c0-1.7-0.4-2.9-1.1-3.7c-0.7-0.8-1.8-1.1-3.1-1.1
			c-1,0-1.9,0.3-2.8,0.8c-0.9,0.5-1.5,1.2-1.9,2.1c-0.4,0.9-0.5,2.1-0.5,3.6v10.8H1087.2z"/>
		<path fill="#6D9EEB" d="M494.4,417.9L494.4,417.9c0-5.3,3.8-9.5,8.5-9.5l0,0c2.3,0,4.4,1,6,2.8s2.5,4.2,2.5,6.7l0,0
			c0,5.3-3.8,9.5-8.5,9.5l0,0C498.2,427.4,494.4,423.2,494.4,417.9z"/>
		<path fill="#6D9EEB" d="M575,417.9L575,417.9c0-5.3,3.8-9.5,8.5-9.5l0,0c2.3,0,4.4,1,6,2.8s2.5,4.2,2.5,6.7l0,0
			c0,5.3-3.8,9.5-8.5,9.5l0,0C578.8,427.4,575,423.2,575,417.9z"/>
		<path fill="#6D9EEB" d="M753,416.4L753,416.4c0-5.3,3.8-9.5,8.5-9.5l0,0c2.3,0,4.4,1,6,2.8s2.5,4.2,2.5,6.7l0,0
			c0,5.3-3.8,9.5-8.5,9.5l0,0C756.8,425.9,753,421.6,753,416.4z"/>
		<path fill="#6D9EEB" d="M833.7,416.4L833.7,416.4c0-5.3,3.8-9.5,8.5-9.5l0,0c2.3,0,4.4,1,6,2.8c1.6,1.8,2.5,4.2,2.5,6.7l0,0
			c0,5.3-3.8,9.5-8.5,9.5l0,0C837.5,425.9,833.7,421.6,833.7,416.4z"/>
		<path fill="#6D9EEB" d="M1011.7,417.9L1011.7,417.9c0-5.3,3.8-9.5,8.5-9.5l0,0c2.3,0,4.4,1,6,2.8c1.6,1.8,2.5,4.2,2.5,6.7l0,0
			c0,5.3-3.8,9.5-8.5,9.5l0,0C1015.5,427.4,1011.7,423.2,1011.7,417.9z"/>
		<path fill="#6D9EEB" d="M1092.4,417.9L1092.4,417.9c0-5.3,3.8-9.5,8.5-9.5l0,0c2.3,0,4.4,1,6,2.8c1.6,1.8,2.5,4.2,2.5,6.7l0,0
			c0,5.3-3.8,9.5-8.5,9.5l0,0C1096.2,427.4,1092.4,423.2,1092.4,417.9z"/>
		<path fill="#EEEEEE" d="M271.2,238.7L271.2,238.7c0-12.2,12.1-22,27-22l0,0c14.9,0,27,9.9,27,22l0,0c0,12.2-12.1,22-27,22l0,0
			C283.3,260.7,271.2,250.9,271.2,238.7z"/>
		<path fill="none" stroke="#595959" stroke-linejoin="round" stroke-miterlimit="10" d="M271.2,238.7L271.2,238.7
			c0-12.2,12.1-22,27-22l0,0c14.9,0,27,9.9,27,22l0,0c0,12.2-12.1,22-27,22l0,0C283.3,260.7,271.2,250.9,271.2,238.7z"/>
		<path fill="#EEEEEE" d="M351.8,238.7L351.8,238.7c0-12.2,12.1-22,27-22l0,0c14.9,0,27,9.9,27,22l0,0c0,12.2-12.1,22-27,22l0,0
			C363.9,260.7,351.8,250.9,351.8,238.7z"/>
		<path fill="none" stroke="#595959" stroke-linejoin="round" stroke-miterlimit="10" d="M351.8,238.7L351.8,238.7
			c0-12.2,12.1-22,27-22l0,0c14.9,0,27,9.9,27,22l0,0c0,12.2-12.1,22-27,22l0,0C363.9,260.7,351.8,250.9,351.8,238.7z"/>
		<path fill-opacity="0" d="M761.5,425.9c0,34.3-126.4,51.4-252.8,68.6c-126.4,17.1-252.8,34.3-252.8,68.6"/>
		<path fill="none" stroke="#FF0000" stroke-linejoin="round" stroke-miterlimit="10" d="M761.5,425.9c0,34.3-126.4,51.4-252.8,68.6
			c-63.2,8.6-126.4,17.1-173.8,27.9c-23.7,5.4-43.4,11.2-57.3,17.9c-6.9,3.3-12.3,6.9-16,10.7c-0.2,0.2-0.5,0.5-0.7,0.7l-0.1,0.1"/>
		<path fill="#FF0000" stroke="#FF0000" stroke-miterlimit="10" d="M257.7,550.4l-0.6,9.8l6.8-7.2L257.7,550.4z"/>
		<path fill-opacity="0" d="M502.8,427.4c0,33.9-61.7,50.9-123.4,67.8C317.7,512.2,256,529.1,256,563"/>
		<path fill="none" stroke="#FF0000" stroke-linejoin="round" stroke-miterlimit="10" d="M502.8,427.4c0,33.9-61.7,50.9-123.4,67.8
			c-30.9,8.5-61.7,16.9-84.9,27.5c-11.6,5.3-21.2,11.1-28,17.7c-3.4,3.3-6,6.8-7.8,10.6l0,0"/>
		<path fill="#FF0000" stroke="#FF0000" stroke-miterlimit="10" d="M255.5,550.3l1.2,9.8l5.4-8.3L255.5,550.3z"/>
		<path fill-opacity="0" d="M761.5,425.9c0,34.3-126.4,51.4-252.8,68.6c-126.4,17.1-252.8,34.3-252.8,68.6"/>
		<path fill="none" stroke="#FF0000" stroke-linejoin="round" stroke-miterlimit="10" d="M761.5,425.9c0,34.3-126.4,51.4-252.8,68.6
			c-63.2,8.6-126.4,17.1-173.8,27.9c-23.7,5.4-43.4,11.2-57.3,17.9c-6.9,3.3-12.3,6.9-16,10.7c-0.2,0.2-0.5,0.5-0.7,0.7l-0.1,0.1"/>
		<path fill="#FF0000" stroke="#FF0000" stroke-miterlimit="10" d="M257.7,550.4l-0.6,9.8l6.8-7.2L257.7,550.4z"/>
		<path fill-opacity="0" d="M583.5,427.4c0,34.6,47,51.9,94,69.2c47,17.3,94,34.6,94,69.2"/>
		<path fill="none" stroke="#6AA84F" stroke-linejoin="round" stroke-miterlimit="10" d="M583.5,427.4c0,33.7,50.6,50.5,101.2,67.3
			c25.3,8.4,50.6,16.8,69.6,27.3c9.5,5.3,17.4,11,22.9,17.6c2.8,3.3,4.9,6.8,6.4,10.5l0,0.1"/>
		<path fill="#6AA84F" stroke="#6AA84F" stroke-miterlimit="10" d="M780.3,549.4l4.9,8.6l1.8-9.7L780.3,549.4z"/>
		<path fill-opacity="0" d="M842.2,425.9c0,43.1,0.5,64.7,1.1,86.3c0.5,21.6,1.1,43.1,1.1,86.3"/>
		<path fill="none" stroke="#6AA84F" stroke-linejoin="round" stroke-miterlimit="10" d="M842.2,425.9c0,37.5,0.5,56.2,1.1,74.9
			c0.3,9.4,0.5,18.7,0.7,30.4c0.1,5.9,0.2,12.3,0.2,19.6c0,3.7,0.1,7.5,0.1,11.7l0,2.6"/>
		<path fill="#6AA84F" stroke="#6AA84F" stroke-miterlimit="10" d="M840.9,564.8l3.4,9.3l3.4-9.3L840.9,564.8z"/>
		<path fill-opacity="0" d="M1100.9,427.4c0,50.9-45.9,76.4-91.9,101.8c-45.9,25.5-91.9,50.9-91.9,101.8"/>
		<path fill="none" stroke="#6AA84F" stroke-linejoin="round" stroke-miterlimit="10" d="M1100.9,427.4c0,36.8-37.6,55.2-75.1,73.6
			c-18.8,9.2-37.6,18.4-51.7,29.9c-7,5.7-12.9,12.1-17,19.3c-2.1,3.6-3.7,7.4-4.8,11.5c-0.3,1-0.5,2-0.7,3.1
			c-0.1,0.3-0.1,0.5-0.2,0.8l0,0.3"/>
		<path fill="#6AA84F" stroke="#6AA84F" stroke-miterlimit="10" d="M948,563.6l2.7,9.5l4.1-9L948,563.6z"/>
		<path fill-opacity="0" d="M1020.2,427.4c0,33.9-191.1,50.9-382.1,67.8C447,512.2,256,529.1,256,563"/>
		<path fill="none" stroke="#FF0000" stroke-linejoin="round" stroke-miterlimit="10" d="M1020.2,427.4
			c0,33.9-191.1,50.9-382.1,67.8c-95.5,8.5-191.1,16.9-262.7,27.5c-35.8,5.3-65.7,11.1-86.6,17.7c-10.4,3.3-18.7,6.8-24.3,10.6
			c-0.7,0.5-1.4,0.9-2,1.4l-0.2,0.1"/>
		<path fill="#FF0000" stroke="#FF0000" stroke-miterlimit="10" d="M259.5,550.8l-2,9.6l7.7-6.1L259.5,550.8z"/>
		<path fill="#A4C2F4" d="M228.5,213.7L228.5,213.7c0-6.9,5.6-12.5,12.5-12.5h195.1c3.3,0,6.5,1.3,8.8,3.7c2.3,2.3,3.7,5.5,3.7,8.8
			v49.9c0,6.9-5.6,12.5-12.5,12.5H241c-6.9,0-12.5-5.6-12.5-12.5V213.7z"/>
		<path fill="none" stroke="#0000FF" stroke-linejoin="round" stroke-miterlimit="10" d="M228.5,213.7L228.5,213.7
			c0-6.9,5.6-12.5,12.5-12.5h195.1c3.3,0,6.5,1.3,8.8,3.7c2.3,2.3,3.7,5.5,3.7,8.8v49.9c0,6.9-5.6,12.5-12.5,12.5H241
			c-6.9,0-12.5-5.6-12.5-12.5V213.7z"/>
		<path d="M286.3,244.1l3.4-0.3c0.2,1.4,0.5,2.5,1.1,3.3c0.6,0.9,1.5,1.6,2.7,2.1c1.3,0.5,2.7,0.8,4.2,0.8c1.4,0,2.6-0.2,3.6-0.6
			c1.1-0.4,1.8-1,2.4-1.7c0.5-0.7,0.8-1.5,0.8-2.4c0-0.9-0.3-1.6-0.8-2.2c-0.5-0.6-1.3-1.2-2.4-1.6c-0.7-0.3-2.4-0.7-4.9-1.3
			c-2.5-0.6-4.2-1.2-5.2-1.7c-1.3-0.7-2.3-1.5-2.9-2.5c-0.6-1-1-2.2-1-3.4c0-1.4,0.4-2.6,1.2-3.8c0.8-1.2,1.9-2.1,3.4-2.7
			c1.5-0.6,3.2-0.9,5-0.9c2,0,3.8,0.3,5.3,1c1.6,0.6,2.7,1.6,3.6,2.9c0.8,1.3,1.3,2.7,1.3,4.3l-3.4,0.3c-0.2-1.7-0.8-3-1.9-3.9
			c-1.1-0.9-2.6-1.3-4.7-1.3c-2.2,0-3.8,0.4-4.8,1.2c-1,0.8-1.5,1.8-1.5,2.9c0,1,0.4,1.8,1.1,2.4c0.7,0.6,2.5,1.3,5.4,2
			c2.9,0.7,4.9,1.2,6,1.7c1.6,0.7,2.8,1.6,3.5,2.8c0.8,1.1,1.1,2.4,1.1,3.9c0,1.4-0.4,2.8-1.2,4.1c-0.8,1.3-2,2.3-3.6,3
			c-1.6,0.7-3.3,1.1-5.3,1.1c-2.5,0-4.5-0.4-6.2-1.1c-1.7-0.7-3-1.8-3.9-3.3C286.8,247.5,286.3,245.9,286.3,244.1z M325.3,245.6
			l3.3,0.4c-0.4,2.3-1.3,4-2.8,5.3c-1.5,1.3-3.3,1.9-5.5,1.9c-2.7,0-4.9-0.9-6.5-2.6c-1.6-1.8-2.5-4.3-2.5-7.6c0-2.1,0.4-4,1.1-5.6
			c0.7-1.6,1.8-2.8,3.2-3.6c1.4-0.8,3-1.2,4.7-1.2c2.1,0,3.9,0.5,5.3,1.6c1.4,1.1,2.2,2.6,2.6,4.6l-3.3,0.5c-0.3-1.3-0.9-2.3-1.7-3
			c-0.8-0.7-1.7-1-2.8-1c-1.7,0-3.1,0.6-4.1,1.8c-1.1,1.2-1.6,3.1-1.6,5.7c0,2.7,0.5,4.6,1.5,5.8c1,1.2,2.3,1.8,4,1.8
			c1.3,0,2.4-0.4,3.3-1.2C324.5,248.5,325.1,247.3,325.3,245.6z M345,246.5l3.4,0.4c-0.6,2-1.6,3.6-3,4.7c-1.5,1.1-3.3,1.7-5.6,1.7
			c-2.9,0-5.2-0.9-6.9-2.6c-1.7-1.8-2.5-4.3-2.5-7.5c0-3.3,0.9-5.9,2.6-7.7c1.7-1.8,3.9-2.7,6.7-2.7c2.6,0,4.8,0.9,6.4,2.7
			c1.7,1.8,2.5,4.3,2.5,7.6c0,0.2,0,0.5,0,0.9h-14.7c0.1,2.2,0.7,3.8,1.8,5c1.1,1.1,2.5,1.7,4.1,1.7c1.2,0,2.3-0.3,3.2-1
			C343.8,248.9,344.5,247.9,345,246.5z M334,241.1h11c-0.1-1.7-0.6-2.9-1.3-3.7c-1.1-1.3-2.4-1.9-4.1-1.9c-1.5,0-2.8,0.5-3.9,1.6
			C334.7,238,334.1,239.3,334,241.1z M352.7,252.8v-19.7h3v2.8c1.4-2.2,3.5-3.3,6.3-3.3c1.2,0,2.3,0.2,3.3,0.6s1.7,1,2.2,1.7
			c0.5,0.7,0.9,1.5,1.1,2.5c0.1,0.6,0.2,1.7,0.2,3.3v12.2h-3.3v-12c0-1.4-0.1-2.4-0.4-3c-0.3-0.7-0.7-1.2-1.4-1.6
			c-0.7-0.4-1.4-0.6-2.3-0.6c-1.4,0-2.7,0.5-3.7,1.4c-1,0.9-1.5,2.6-1.5,5.1v10.8H352.7z M387.4,246.5l3.4,0.4c-0.6,2-1.6,3.6-3,4.7
			c-1.5,1.1-3.3,1.7-5.6,1.7c-2.9,0-5.2-0.9-6.9-2.6c-1.7-1.8-2.5-4.3-2.5-7.5c0-3.3,0.9-5.9,2.6-7.7c1.7-1.8,3.9-2.7,6.7-2.7
			c2.6,0,4.8,0.9,6.4,2.7c1.7,1.8,2.5,4.3,2.5,7.6c0,0.2,0,0.5,0,0.9h-14.7c0.1,2.2,0.7,3.8,1.8,5c1.1,1.1,2.5,1.7,4.1,1.7
			c1.2,0,2.3-0.3,3.2-1C386.2,248.9,386.9,247.9,387.4,246.5z M376.4,241.1h11c-0.1-1.7-0.6-2.9-1.3-3.7c-1.1-1.3-2.4-1.9-4.1-1.9
			c-1.5,0-2.8,0.5-3.9,1.6C377,238,376.5,239.3,376.4,241.1z"/>
		<path fill="#A4C2F4" d="M659.5,79.3L659.5,79.3c0-6.9,5.6-12.5,12.5-12.5h430.7c3.3,0,6.5,1.3,8.8,3.7c2.3,2.3,3.7,5.5,3.7,8.8
			v49.9c0,6.9-5.6,12.5-12.5,12.5H672c-6.9,0-12.5-5.6-12.5-12.5V79.3z"/>
		<path fill="none" stroke="#0000FF" stroke-linejoin="round" stroke-miterlimit="10" d="M659.5,79.3L659.5,79.3
			c0-6.9,5.6-12.5,12.5-12.5h430.7c3.3,0,6.5,1.3,8.8,3.7c2.3,2.3,3.7,5.5,3.7,8.8v49.9c0,6.9-5.6,12.5-12.5,12.5H672
			c-6.9,0-12.5-5.6-12.5-12.5V79.3z"/>
		<path d="M721,118.3V91.1h10.3c1.8,0,3.2,0.1,4.1,0.3c1.3,0.2,2.4,0.7,3.3,1.3c0.9,0.6,1.6,1.5,2.2,2.6s0.8,2.4,0.8,3.7
			c0,2.3-0.7,4.3-2.2,5.9c-1.5,1.6-4.1,2.4-8,2.4h-7v11.1H721z M724.6,104.1h7c2.3,0,4-0.4,5-1.3c1-0.9,1.5-2.1,1.5-3.7
			c0-1.1-0.3-2.1-0.9-2.9s-1.3-1.3-2.3-1.6c-0.6-0.2-1.7-0.3-3.3-0.3h-7V104.1z M759.5,112l3.4,0.4c-0.6,2-1.6,3.6-3,4.7
			c-1.5,1.1-3.3,1.7-5.6,1.7c-2.9,0-5.2-0.9-6.9-2.6c-1.7-1.8-2.5-4.3-2.5-7.5c0-3.3,0.9-5.9,2.6-7.7c1.7-1.8,3.9-2.7,6.7-2.7
			c2.6,0,4.8,0.9,6.4,2.7c1.7,1.8,2.5,4.3,2.5,7.6c0,0.2,0,0.5,0,0.9h-14.7c0.1,2.2,0.7,3.8,1.8,5c1.1,1.1,2.5,1.7,4.1,1.7
			c1.2,0,2.3-0.3,3.2-1C758.3,114.4,759,113.4,759.5,112z M748.5,106.6h11c-0.1-1.7-0.6-2.9-1.3-3.7c-1.1-1.3-2.4-1.9-4.1-1.9
			c-1.5,0-2.8,0.5-3.9,1.6C749.2,103.5,748.6,104.9,748.5,106.6z M767.1,118.3V98.6h3v3c0.8-1.4,1.5-2.3,2.1-2.8
			c0.7-0.4,1.4-0.7,2.2-0.7c1.1,0,2.3,0.4,3.4,1.1l-1.1,3.1c-0.8-0.5-1.6-0.7-2.5-0.7c-0.7,0-1.4,0.2-2,0.7c-0.6,0.4-1,1.1-1.2,1.8
			c-0.4,1.2-0.6,2.5-0.6,3.9v10.3H767.1z M778.5,112.4l3.3-0.5c0.2,1.3,0.7,2.3,1.5,3.1c0.9,0.7,2,1.1,3.6,1.1
			c1.5,0,2.7-0.3,3.4-0.9c0.7-0.6,1.1-1.4,1.1-2.2c0-0.7-0.3-1.3-1-1.8c-0.4-0.3-1.6-0.7-3.4-1.1c-2.5-0.6-4.2-1.2-5.1-1.6
			c-0.9-0.4-1.6-1.1-2.1-1.8c-0.5-0.8-0.7-1.7-0.7-2.7c0-0.9,0.2-1.7,0.6-2.4c0.4-0.8,1-1.4,1.7-1.9c0.5-0.4,1.2-0.7,2.1-1
			c0.9-0.3,1.9-0.4,2.9-0.4c1.6,0,2.9,0.2,4.1,0.7c1.2,0.4,2,1.1,2.6,1.8c0.6,0.8,1,1.8,1.2,3.1l-3.3,0.4c-0.1-1-0.6-1.8-1.3-2.4
			c-0.7-0.6-1.7-0.9-3-0.9c-1.6,0-2.7,0.3-3.3,0.8c-0.6,0.5-1,1.1-1,1.8c0,0.4,0.1,0.8,0.4,1.2c0.3,0.4,0.7,0.7,1.3,0.9
			c0.3,0.1,1.3,0.4,2.9,0.9c2.4,0.6,4,1.1,5,1.5c0.9,0.4,1.7,1,2.2,1.8c0.5,0.8,0.8,1.7,0.8,2.9c0,1.1-0.3,2.2-1,3.2
			c-0.6,1-1.6,1.7-2.8,2.3c-1.2,0.5-2.6,0.8-4.2,0.8c-2.6,0-4.5-0.5-5.9-1.6C779.7,116.1,778.8,114.6,778.5,112.4z M798.8,125.9
			V98.6h3v2.6c0.7-1,1.5-1.7,2.4-2.2c0.9-0.5,2-0.8,3.3-0.8c1.7,0,3.2,0.4,4.4,1.3c1.3,0.9,2.3,2.1,2.9,3.7c0.7,1.6,1,3.3,1,5.2
			c0,2-0.4,3.8-1.1,5.5c-0.7,1.6-1.8,2.9-3.2,3.7c-1.4,0.9-2.8,1.3-4.4,1.3c-1.1,0-2.1-0.2-3-0.7c-0.9-0.5-1.6-1.1-2.2-1.8v9.6
			H798.8z M801.9,108.6c0,2.5,0.5,4.4,1.5,5.6c1,1.2,2.3,1.8,3.7,1.8c1.5,0,2.8-0.6,3.8-1.9c1.1-1.3,1.6-3.2,1.6-5.9
			c0-2.5-0.5-4.4-1.6-5.6c-1-1.3-2.3-1.9-3.7-1.9c-1.4,0-2.7,0.7-3.8,2C802.4,104.1,801.9,106,801.9,108.6z M833.5,112l3.4,0.4
			c-0.6,2-1.6,3.6-3,4.7c-1.5,1.1-3.3,1.7-5.6,1.7c-2.9,0-5.2-0.9-6.9-2.6c-1.7-1.8-2.5-4.3-2.5-7.5c0-3.3,0.9-5.9,2.6-7.7
			c1.7-1.8,3.9-2.7,6.7-2.7c2.6,0,4.8,0.9,6.4,2.7c1.7,1.8,2.5,4.3,2.5,7.6c0,0.2,0,0.5,0,0.9h-14.7c0.1,2.2,0.7,3.8,1.8,5
			c1.1,1.1,2.5,1.7,4.1,1.7c1.2,0,2.3-0.3,3.2-1C832.3,114.4,833,113.4,833.5,112z M822.5,106.6h11c-0.1-1.7-0.6-2.9-1.3-3.7
			c-1.1-1.3-2.4-1.9-4.1-1.9c-1.5,0-2.8,0.5-3.9,1.6C823.2,103.5,822.7,104.9,822.5,106.6z M854.1,111.1l3.3,0.4
			c-0.4,2.3-1.3,4-2.8,5.3c-1.5,1.3-3.3,1.9-5.5,1.9c-2.7,0-4.9-0.9-6.5-2.6s-2.5-4.3-2.5-7.6c0-2.1,0.4-4,1.1-5.6
			c0.7-1.6,1.8-2.8,3.2-3.6c1.4-0.8,3-1.2,4.7-1.2c2.1,0,3.9,0.5,5.3,1.6s2.2,2.6,2.6,4.6l-3.3,0.5c-0.3-1.3-0.9-2.3-1.7-3
			c-0.8-0.7-1.7-1-2.8-1c-1.7,0-3.1,0.6-4.1,1.8c-1.1,1.2-1.6,3.1-1.6,5.7c0,2.7,0.5,4.6,1.5,5.8c1,1.2,2.3,1.8,4,1.8
			c1.3,0,2.4-0.4,3.3-1.2C853.3,114,853.9,112.8,854.1,111.1z M867.5,115.3l0.5,3c-0.9,0.2-1.8,0.3-2.5,0.3c-1.2,0-2.2-0.2-2.8-0.6
			c-0.7-0.4-1.1-0.9-1.4-1.5c-0.3-0.6-0.4-2-0.4-4v-11.4h-2.5v-2.6h2.5v-4.9l3.3-2v6.9h3.4v2.6h-3.4v11.6c0,0.9,0.1,1.5,0.2,1.8
			c0.1,0.3,0.3,0.5,0.6,0.7c0.3,0.1,0.7,0.2,1.2,0.2C866.4,115.5,866.9,115.4,867.5,115.3z M870.8,94.9v-3.9h3.3v3.9H870.8z
			 M870.8,118.3V98.6h3.3v19.7H870.8z M884.8,118.3l-7.5-19.7h3.5l4.2,11.8c0.4,1.3,0.9,2.6,1.3,4c0.3-1,0.7-2.3,1.2-3.7l4.4-12.1
			h3.4l-7.5,19.7H884.8z M911.8,112l3.4,0.4c-0.6,2-1.6,3.6-3,4.7c-1.5,1.1-3.3,1.7-5.6,1.7c-2.9,0-5.2-0.9-6.9-2.6
			c-1.7-1.8-2.5-4.3-2.5-7.5c0-3.3,0.9-5.9,2.6-7.7c1.7-1.8,3.9-2.7,6.7-2.7c2.6,0,4.8,0.9,6.4,2.7c1.7,1.8,2.5,4.3,2.5,7.6
			c0,0.2,0,0.5,0,0.9h-14.7c0.1,2.2,0.7,3.8,1.8,5c1.1,1.1,2.5,1.7,4.1,1.7c1.2,0,2.3-0.3,3.2-1C910.6,114.4,911.3,113.4,911.8,112z
			 M900.8,106.6h11c-0.1-1.7-0.6-2.9-1.3-3.7c-1.1-1.3-2.4-1.9-4.1-1.9c-1.5,0-2.8,0.5-3.9,1.6C901.5,103.5,900.9,104.9,900.8,106.6
			z"/>
		<path d="M937.2,108.3l5.3,1.7c-0.8,3-2.2,5.2-4.1,6.6c-1.9,1.4-4.3,2.2-7.2,2.2c-3.6,0-6.6-1.2-8.9-3.7c-2.3-2.5-3.5-5.9-3.5-10.2
			c0-4.5,1.2-8,3.5-10.6c2.3-2.5,5.4-3.8,9.2-3.8c3.3,0,6,1,8.1,2.9c1.3,1.2,2.2,2.8,2.8,5l-5.5,1.3c-0.3-1.4-1-2.5-2-3.3
			c-1-0.8-2.3-1.2-3.7-1.2c-2,0-3.7,0.7-4.9,2.2c-1.3,1.4-1.9,3.8-1.9,7c0,3.4,0.6,5.9,1.8,7.4c1.3,1.5,2.9,2.2,4.8,2.2
			c1.5,0,2.7-0.5,3.8-1.4C936,111.8,936.7,110.3,937.2,108.3z M951.1,104.6l-4.8-0.9c0.6-1.9,1.5-3.3,2.8-4.2
			c1.3-0.9,3.2-1.4,5.8-1.4c2.3,0,4.1,0.3,5.2,0.8c1.1,0.6,1.9,1.3,2.4,2.1c0.5,0.9,0.7,2.4,0.7,4.7l0,6.1c0,1.7,0.1,3,0.2,3.8
			c0.2,0.8,0.5,1.7,1,2.6h-5.2c-0.1-0.3-0.3-0.9-0.5-1.5c-0.1-0.3-0.1-0.5-0.2-0.6c-0.9,0.9-1.8,1.5-2.9,2c-1,0.4-2.1,0.6-3.3,0.6
			c-2,0-3.6-0.6-4.8-1.7c-1.2-1.1-1.8-2.5-1.8-4.2c0-1.1,0.3-2.1,0.8-3c0.5-0.9,1.3-1.5,2.2-2c1-0.5,2.3-0.9,4.1-1.2
			c2.4-0.4,4.1-0.9,5.1-1.3V105c0-1-0.2-1.7-0.7-2.2c-0.5-0.4-1.4-0.6-2.8-0.6c-0.9,0-1.7,0.2-2.2,0.6
			C951.8,103.1,951.4,103.7,951.1,104.6z M958.1,108.9c-0.7,0.2-1.7,0.5-3.2,0.8c-1.4,0.3-2.4,0.6-2.8,0.9c-0.7,0.5-1,1.1-1,1.8
			c0,0.7,0.3,1.4,0.8,1.9c0.6,0.5,1.2,0.8,2.1,0.8c1,0,1.9-0.3,2.7-1c0.6-0.5,1.1-1,1.2-1.7c0.1-0.4,0.2-1.3,0.2-2.6V108.9z
			 M968,98.6h4.8v2.7c1.7-2.1,3.8-3.1,6.2-3.1c1.3,0,2.4,0.3,3.3,0.8c0.9,0.5,1.7,1.3,2.3,2.3c0.9-1,1.8-1.8,2.8-2.3
			c1-0.5,2.1-0.8,3.2-0.8c1.4,0,2.7,0.3,3.7,0.9c1,0.6,1.8,1.4,2.3,2.6c0.4,0.9,0.5,2.2,0.5,4.1v12.6h-5.2v-11.3
			c0-2-0.2-3.2-0.5-3.8c-0.5-0.7-1.2-1.1-2.2-1.1c-0.7,0-1.4,0.2-2.1,0.7c-0.6,0.4-1.1,1.1-1.4,2c-0.3,0.9-0.4,2.2-0.4,4.1v9.5h-5.2
			v-10.8c0-1.9-0.1-3.2-0.3-3.7c-0.2-0.6-0.5-1-0.9-1.2c-0.4-0.3-0.9-0.4-1.6-0.4c-0.8,0-1.5,0.2-2.2,0.7c-0.6,0.4-1.1,1.1-1.4,1.9
			c-0.3,0.8-0.4,2.2-0.4,4.1v9.6H968V98.6z M1013.7,112.1l5.2,0.9c-0.7,1.9-1.7,3.4-3.2,4.4c-1.4,1-3.3,1.5-5.4,1.5
			c-3.4,0-6-1.1-7.6-3.4c-1.3-1.8-1.9-4.1-1.9-6.8c0-3.3,0.9-5.8,2.6-7.7c1.7-1.8,3.9-2.8,6.5-2.8c2.9,0,5.3,1,7,2.9
			c1.7,1.9,2.5,4.9,2.4,8.9h-13.1c0,1.6,0.5,2.8,1.2,3.6c0.8,0.9,1.8,1.3,3,1.3c0.8,0,1.5-0.2,2-0.7
			C1013,113.8,1013.4,113.1,1013.7,112.1z M1014,106.8c0-1.5-0.4-2.7-1.2-3.4c-0.7-0.8-1.6-1.2-2.7-1.2c-1.1,0-2.1,0.4-2.8,1.2
			c-0.7,0.8-1.1,2-1.1,3.4H1014z M1028.4,118.3h-5.2V98.6h4.8v2.8c0.8-1.3,1.6-2.2,2.2-2.6c0.7-0.4,1.4-0.6,2.3-0.6
			c1.2,0,2.3,0.3,3.4,1l-1.6,4.6c-0.9-0.6-1.7-0.9-2.5-0.9c-0.7,0-1.3,0.2-1.8,0.6c-0.5,0.4-0.9,1.1-1.2,2.2c-0.3,1-0.4,3.2-0.4,6.6
			V118.3z M1042.1,104.6l-4.8-0.9c0.6-1.9,1.5-3.3,2.8-4.2c1.3-0.9,3.2-1.4,5.8-1.4c2.3,0,4.1,0.3,5.2,0.8s1.9,1.3,2.4,2.1
			c0.5,0.9,0.7,2.4,0.7,4.7l0,6.1c0,1.7,0.1,3,0.2,3.8c0.2,0.8,0.5,1.7,1,2.6h-5.2c-0.1-0.3-0.3-0.9-0.5-1.5
			c-0.1-0.3-0.1-0.5-0.2-0.6c-0.9,0.9-1.8,1.5-2.9,2c-1,0.4-2.1,0.6-3.3,0.6c-2,0-3.6-0.6-4.8-1.7c-1.2-1.1-1.8-2.5-1.8-4.2
			c0-1.1,0.3-2.1,0.8-3c0.5-0.9,1.3-1.5,2.2-2c1-0.5,2.3-0.9,4.1-1.2c2.4-0.4,4.1-0.9,5.1-1.3V105c0-1-0.2-1.7-0.7-2.2
			c-0.5-0.4-1.4-0.6-2.8-0.6c-0.9,0-1.7,0.2-2.2,0.6C1042.9,103.1,1042.5,103.7,1042.1,104.6z M1049.1,108.9
			c-0.7,0.2-1.7,0.5-3.2,0.8c-1.4,0.3-2.4,0.6-2.8,0.9c-0.7,0.5-1,1.1-1,1.8c0,0.7,0.3,1.4,0.8,1.9c0.6,0.5,1.2,0.8,2.1,0.8
			c1,0,1.9-0.3,2.7-1c0.6-0.5,1.1-1,1.2-1.7c0.1-0.4,0.2-1.3,0.2-2.6V108.9z"/>
		<path fill="#A4C2F4" d="M57.4,356.1L57.4,356.1c0-6.9,5.6-12.5,12.5-12.5h310.9c3.3,0,6.5,1.3,8.8,3.7s3.7,5.5,3.7,8.8v49.9
			c0,6.9-5.6,12.5-12.5,12.5H69.8c-6.9,0-12.5-5.6-12.5-12.5V356.1z"/>
		<path fill="none" stroke="#0000FF" stroke-linejoin="round" stroke-miterlimit="10" d="M57.4,356.1L57.4,356.1
			c0-6.9,5.6-12.5,12.5-12.5h310.9c3.3,0,6.5,1.3,8.8,3.7s3.7,5.5,3.7,8.8v49.9c0,6.9-5.6,12.5-12.5,12.5H69.8
			c-6.9,0-12.5-5.6-12.5-12.5V356.1z"/>
		<path d="M91.8,395.2V368h9.4c2.1,0,3.7,0.1,4.8,0.4c1.6,0.3,2.9,1,4,1.9c1.4,1.2,2.5,2.8,3.2,4.7c0.7,1.9,1.1,4.1,1.1,6.5
			c0,2.1-0.2,3.9-0.7,5.5c-0.5,1.6-1.1,2.9-1.9,4c-0.7,1-1.6,1.9-2.5,2.5c-0.9,0.6-2,1.1-3.3,1.4c-1.3,0.3-2.7,0.4-4.4,0.4H91.8z
			 M95.4,392h5.8c1.8,0,3.2-0.2,4.2-0.5c1-0.3,1.8-0.8,2.5-1.4c0.9-0.9,1.5-2,2-3.4c0.5-1.4,0.7-3.2,0.7-5.3c0-2.8-0.5-5-1.4-6.6
			c-0.9-1.5-2.1-2.6-3.4-3.1c-1-0.4-2.5-0.6-4.7-0.6h-5.7V392z M118.9,371.8V368h3.3v3.9H118.9z M118.9,395.2v-19.7h3.3v19.7H118.9z
			 M127.3,395.2v-19.7h3v3c0.8-1.4,1.5-2.3,2.1-2.8c0.7-0.4,1.4-0.7,2.2-0.7c1.1,0,2.3,0.4,3.4,1.1l-1.1,3.1
			c-0.8-0.5-1.6-0.7-2.5-0.7c-0.7,0-1.4,0.2-2,0.7s-1,1.1-1.2,1.8c-0.4,1.2-0.6,2.5-0.6,3.9v10.3H127.3z M153.5,388.9l3.4,0.4
			c-0.6,2-1.6,3.6-3,4.7c-1.5,1.1-3.3,1.7-5.6,1.7c-2.9,0-5.2-0.9-6.9-2.6c-1.7-1.8-2.5-4.3-2.5-7.5c0-3.3,0.9-5.9,2.6-7.7
			c1.7-1.8,3.9-2.7,6.7-2.7c2.6,0,4.8,0.9,6.4,2.7c1.7,1.8,2.5,4.3,2.5,7.6c0,0.2,0,0.5,0,0.9h-14.7c0.1,2.2,0.7,3.8,1.8,5
			c1.1,1.1,2.5,1.7,4.1,1.7c1.2,0,2.3-0.3,3.2-1C152.3,391.3,153,390.3,153.5,388.9z M142.5,383.5h11c-0.1-1.7-0.6-2.9-1.3-3.7
			c-1.1-1.3-2.4-1.9-4.1-1.9c-1.5,0-2.8,0.5-3.9,1.6C143.2,380.4,142.6,381.7,142.5,383.5z M174.1,388l3.3,0.4
			c-0.4,2.3-1.3,4-2.8,5.3c-1.5,1.3-3.3,1.9-5.5,1.9c-2.7,0-4.9-0.9-6.5-2.6c-1.6-1.8-2.5-4.3-2.5-7.6c0-2.1,0.4-4,1.1-5.6
			c0.7-1.6,1.8-2.8,3.2-3.6c1.4-0.8,3-1.2,4.7-1.2c2.1,0,3.9,0.5,5.3,1.6c1.4,1.1,2.2,2.6,2.6,4.6l-3.3,0.5c-0.3-1.3-0.9-2.3-1.7-3
			c-0.8-0.7-1.7-1-2.8-1c-1.7,0-3.1,0.6-4.1,1.8c-1.1,1.2-1.6,3.1-1.6,5.7c0,2.7,0.5,4.6,1.5,5.8c1,1.2,2.3,1.8,4,1.8
			c1.3,0,2.4-0.4,3.3-1.2C173.3,390.9,173.8,389.7,174.1,388z M187.5,392.2l0.5,3c-0.9,0.2-1.8,0.3-2.5,0.3c-1.2,0-2.2-0.2-2.8-0.6
			c-0.7-0.4-1.1-0.9-1.4-1.5c-0.3-0.6-0.4-2-0.4-4v-11.4h-2.5v-2.6h2.5v-4.9l3.3-2v6.9h3.4v2.6h-3.4v11.6c0,0.9,0.1,1.5,0.2,1.8
			c0.1,0.3,0.3,0.5,0.6,0.7c0.3,0.1,0.7,0.2,1.2,0.2C186.4,392.4,186.9,392.3,187.5,392.2z M190.8,371.8V368h3.3v3.9H190.8z
			 M190.8,395.2v-19.7h3.3v19.7H190.8z M198,385.3c0-3.7,1-6.4,3-8.1c1.7-1.5,3.8-2.2,6.2-2.2c2.7,0,4.9,0.9,6.7,2.7
			c1.7,1.8,2.6,4.2,2.6,7.4c0,2.5-0.4,4.5-1.1,6c-0.8,1.4-1.9,2.6-3.3,3.4c-1.4,0.8-3,1.2-4.8,1.2c-2.8,0-5-0.9-6.7-2.6
			C198.9,391.2,198,388.7,198,385.3z M201.5,385.3c0,2.5,0.5,4.4,1.6,5.7c1.1,1.3,2.5,1.9,4.2,1.9c1.7,0,3-0.6,4.1-1.9
			c1.1-1.3,1.7-3.2,1.7-5.8c0-2.4-0.6-4.3-1.7-5.5c-1.1-1.3-2.5-1.9-4.1-1.9c-1.7,0-3.1,0.6-4.2,1.9
			C202,380.9,201.5,382.8,201.5,385.3z M220.4,395.2v-19.7h3v2.8c1.4-2.2,3.5-3.3,6.3-3.3c1.2,0,2.3,0.2,3.3,0.6
			c1,0.4,1.7,1,2.2,1.7c0.5,0.7,0.9,1.5,1.1,2.5c0.1,0.6,0.2,1.7,0.2,3.3v12.2h-3.3v-12c0-1.4-0.1-2.4-0.4-3
			c-0.3-0.7-0.7-1.2-1.4-1.6c-0.7-0.4-1.4-0.6-2.3-0.6c-1.4,0-2.7,0.5-3.7,1.4c-1,0.9-1.5,2.6-1.5,5.1v10.8H220.4z M254.5,392.8
			c-1.3,1-2.5,1.8-3.6,2.2c-1.1,0.4-2.3,0.6-3.7,0.6c-2.2,0-3.8-0.5-5-1.6c-1.2-1.1-1.8-2.4-1.8-4.1c0-1,0.2-1.9,0.7-2.6
			c0.4-0.8,1-1.4,1.7-1.9c0.7-0.5,1.5-0.9,2.4-1.1c0.6-0.2,1.6-0.3,3-0.5c2.7-0.3,4.7-0.7,6-1.1c0-0.5,0-0.8,0-0.9
			c0-1.4-0.3-2.3-1-2.9c-0.9-0.7-2.1-1.1-3.8-1.1c-1.6,0-2.7,0.3-3.5,0.8c-0.7,0.6-1.3,1.5-1.7,2.9l-3.3-0.4
			c0.3-1.4,0.8-2.5,1.5-3.3c0.7-0.9,1.7-1.5,3-2c1.3-0.5,2.8-0.7,4.5-0.7c1.7,0,3.1,0.2,4.1,0.6c1.1,0.4,1.8,0.9,2.3,1.5
			c0.5,0.6,0.9,1.4,1.1,2.3c0.1,0.6,0.2,1.6,0.2,3.1v4.5c0,3.1,0.1,5.1,0.2,5.9c0.1,0.8,0.4,1.6,0.8,2.4h-3.5
			C254.8,394.5,254.6,393.7,254.5,392.8z M254.2,385.3c-1.2,0.5-3,0.9-5.5,1.3c-1.4,0.2-2.4,0.4-2.9,0.7c-0.6,0.3-1,0.6-1.3,1.1
			c-0.3,0.5-0.4,1-0.4,1.6c0,0.9,0.3,1.6,1,2.2c0.7,0.6,1.7,0.9,3,0.9c1.3,0,2.4-0.3,3.4-0.8c1-0.6,1.8-1.4,2.2-2.3
			c0.4-0.8,0.5-1.9,0.5-3.3V385.3z M262.7,395.2V368h3.3v27.3H262.7z"/>
		<path d="M271.7,395.2v-27h5.5v22.5h13.7v4.6H271.7z M294.7,372.8V368h5.2v4.8H294.7z M294.7,395.2v-19.7h5.2v19.7H294.7z
			 M304.8,396.5l6,0.7c0.1,0.7,0.3,1.1,0.7,1.4c0.5,0.4,1.3,0.6,2.4,0.6c1.4,0,2.4-0.2,3.1-0.6c0.4-0.3,0.8-0.7,1.1-1.3
			c0.1-0.4,0.2-1.2,0.2-2.4V392c-1.6,2.1-3.5,3.2-5.9,3.2c-2.7,0-4.8-1.1-6.3-3.4c-1.2-1.8-1.8-4-1.8-6.6c0-3.3,0.8-5.8,2.4-7.6
			c1.6-1.7,3.6-2.6,5.9-2.6c2.4,0,4.5,1.1,6.1,3.2v-2.8h4.9v17.7c0,2.3-0.2,4.1-0.6,5.2s-0.9,2.1-1.6,2.7c-0.7,0.7-1.6,1.2-2.8,1.5
			c-1.1,0.4-2.6,0.6-4.4,0.6c-3.3,0-5.7-0.6-7.1-1.7c-1.4-1.1-2.1-2.6-2.1-4.3C304.8,397,304.8,396.8,304.8,396.5z M309.5,385
			c0,2.1,0.4,3.6,1.2,4.6c0.8,1,1.8,1.5,3,1.5c1.3,0,2.3-0.5,3.2-1.5c0.9-1,1.3-2.5,1.3-4.4c0-2.1-0.4-3.6-1.3-4.6
			c-0.8-1-1.9-1.5-3.2-1.5c-1.3,0-2.3,0.5-3.1,1.5C309.9,381.5,309.5,383,309.5,385z M333.8,368v10c1.7-2,3.7-3,6-3
			c1.2,0,2.3,0.2,3.3,0.7c1,0.4,1.7,1,2.2,1.7c0.5,0.7,0.8,1.4,1,2.3c0.2,0.8,0.3,2.1,0.3,3.9v11.6h-5.2v-10.4
			c0-2.1-0.1-3.4-0.3-3.9c-0.2-0.6-0.5-1-1.1-1.3c-0.5-0.3-1.1-0.5-1.8-0.5c-0.9,0-1.6,0.2-2.3,0.6c-0.7,0.4-1.2,1.1-1.5,1.9
			c-0.3,0.9-0.5,2.1-0.5,3.8v9.9h-5.2V368H333.8z M360.9,375.5v4.1h-3.6v8c0,1.6,0,2.6,0.1,2.8c0.1,0.3,0.2,0.5,0.4,0.6
			c0.3,0.2,0.6,0.3,0.9,0.3c0.5,0,1.2-0.2,2.1-0.5l0.4,4.1c-1.2,0.5-2.6,0.8-4.1,0.8c-1,0-1.8-0.2-2.6-0.5c-0.7-0.3-1.3-0.7-1.7-1.2
			c-0.3-0.5-0.6-1.2-0.7-2c-0.1-0.6-0.2-1.8-0.2-3.7v-8.6h-2.4v-4.1h2.4v-3.9l5.3-3.1v7H360.9z"/>
		<path fill="#D9D2E9" d="M121.7,103.9l19.2-38.4h404.5l19.2,38.4l-19.2,38.4H140.9L121.7,103.9z"/>
		<path fill="none" stroke="#9900FF" stroke-linejoin="round" stroke-miterlimit="10" d="M121.7,103.9l19.2-38.4h404.5l19.2,38.4
			l-19.2,38.4H140.9L121.7,103.9z"/>
		<path d="M203,118.1l-7.2-27.3h3.7l4.1,17.9c0.4,1.9,0.8,3.7,1.1,5.5c0.7-2.9,1.1-4.6,1.2-5l5.2-18.4h4.3l3.9,13.8
			c1,3.4,1.7,6.6,2.1,9.6c0.4-1.7,0.8-3.7,1.4-5.9l4.3-17.5h3.6l-7.5,27.3h-3.5l-5.7-20.8c-0.5-1.7-0.8-2.8-0.9-3.2
			c-0.3,1.2-0.5,2.3-0.8,3.2l-5.8,20.8H203z M246.6,111.7l3.4,0.4c-0.6,2-1.6,3.6-3,4.7c-1.5,1.1-3.3,1.7-5.6,1.7
			c-2.9,0-5.2-0.9-6.9-2.6c-1.7-1.8-2.5-4.3-2.5-7.5c0-3.3,0.9-5.9,2.6-7.7c1.7-1.8,3.9-2.7,6.7-2.7c2.6,0,4.8,0.9,6.4,2.7
			c1.7,1.8,2.5,4.3,2.5,7.6c0,0.2,0,0.5,0,0.9h-14.7c0.1,2.2,0.7,3.8,1.8,5c1.1,1.1,2.5,1.7,4.1,1.7c1.2,0,2.3-0.3,3.2-1
			C245.4,114.1,246.1,113.1,246.6,111.7z M235.6,106.3h11c-0.1-1.7-0.6-2.9-1.3-3.7c-1.1-1.3-2.4-1.9-4.1-1.9
			c-1.5,0-2.8,0.5-3.9,1.6C236.3,103.2,235.8,104.6,235.6,106.3z M257.4,118.1h-3.1V90.8h3.3v9.7c1.4-1.8,3.2-2.6,5.4-2.6
			c1.2,0,2.4,0.2,3.4,0.7c1.1,0.5,2,1.2,2.7,2.1c0.7,0.9,1.2,1.9,1.6,3.2c0.4,1.3,0.6,2.6,0.6,4c0,3.4-0.8,6-2.5,7.8
			c-1.7,1.8-3.7,2.8-6,2.8c-2.3,0-4.1-1-5.5-2.9V118.1z M257.3,108c0,2.4,0.3,4.1,1,5.1c1,1.7,2.5,2.6,4.3,2.6
			c1.5,0,2.7-0.6,3.8-1.9c1.1-1.3,1.6-3.2,1.6-5.7c0-2.6-0.5-4.5-1.5-5.7c-1-1.2-2.3-1.8-3.7-1.8c-1.4,0-2.7,0.6-3.8,1.9
			C257.9,103.8,257.3,105.6,257.3,108z M288.7,107.4v-3.2h11.5v10.1c-1.8,1.4-3.6,2.5-5.5,3.2c-1.9,0.7-3.8,1.1-5.8,1.1
			c-2.7,0-5.1-0.6-7.3-1.7c-2.2-1.1-3.8-2.8-4.9-5c-1.1-2.2-1.7-4.6-1.7-7.3c0-2.7,0.6-5.1,1.7-7.4c1.1-2.3,2.7-4,4.8-5.1
			c2.1-1.1,4.5-1.7,7.2-1.7c2,0,3.8,0.3,5.4,1c1.6,0.6,2.8,1.5,3.7,2.7c0.9,1.1,1.6,2.6,2.1,4.4l-3.3,0.9c-0.4-1.4-0.9-2.5-1.5-3.3
			c-0.6-0.8-1.5-1.4-2.6-1.9c-1.1-0.5-2.4-0.7-3.8-0.7c-1.6,0-3.1,0.3-4.3,0.8c-1.2,0.5-2.2,1.1-2.9,2c-0.7,0.8-1.3,1.7-1.7,2.7
			c-0.7,1.7-1.1,3.5-1.1,5.5c0,2.4,0.4,4.5,1.2,6.1c0.9,1.6,2.1,2.9,3.7,3.7c1.6,0.8,3.3,1.2,5.1,1.2c1.6,0,3.1-0.3,4.6-0.9
			c1.5-0.6,2.6-1.3,3.4-1.9v-5.1H288.7z M305.4,118.1V90.8h3.6v24h13.4v3.2H305.4z"/>
		<path d="M326.5,118.1V90.8h11.6c2.9,0,5,0.2,6.3,0.7s2.4,1.4,3.2,2.6c0.8,1.3,1.2,2.7,1.2,4.3c0,2-0.6,3.7-1.8,5.1
			c-1.2,1.3-3,2.2-5.4,2.5c1.2,0.7,2.2,1.4,2.9,2.3c0.8,0.8,1.8,2.3,3.1,4.4l3.3,5.3h-6.6l-4-5.9c-1.4-2.1-2.4-3.5-2.9-4
			c-0.5-0.6-1.1-0.9-1.7-1.1c-0.6-0.2-1.5-0.3-2.7-0.3H332v11.4H326.5z M332,102.3h4.1c2.6,0,4.3-0.1,4.9-0.3
			c0.7-0.2,1.2-0.6,1.5-1.2c0.4-0.6,0.6-1.2,0.6-2c0-0.9-0.2-1.6-0.7-2.2c-0.5-0.6-1.2-0.9-2.1-1.1c-0.4-0.1-1.8-0.1-4-0.1H332
			V102.3z M365.4,111.8l5.2,0.9c-0.7,1.9-1.7,3.4-3.2,4.4c-1.4,1-3.3,1.5-5.4,1.5c-3.4,0-6-1.1-7.6-3.4c-1.3-1.8-1.9-4.1-1.9-6.8
			c0-3.3,0.9-5.8,2.6-7.7c1.7-1.8,3.9-2.8,6.5-2.8c2.9,0,5.3,1,7,2.9c1.7,1.9,2.5,4.9,2.4,8.9h-13.1c0,1.6,0.5,2.8,1.2,3.6
			c0.8,0.9,1.8,1.3,3,1.3c0.8,0,1.5-0.2,2-0.7C364.7,113.5,365.1,112.8,365.4,111.8z M365.7,106.5c0-1.5-0.4-2.7-1.2-3.4
			c-0.7-0.8-1.6-1.2-2.7-1.2c-1.1,0-2.1,0.4-2.8,1.2s-1.1,2-1.1,3.4H365.7z M393.1,118.1h-5.2V108c0-2.1-0.1-3.5-0.4-4.1
			c-0.2-0.6-0.6-1.1-1.1-1.5c-0.5-0.4-1.1-0.5-1.8-0.5c-0.9,0-1.7,0.3-2.5,0.8c-0.7,0.5-1.2,1.1-1.5,2c-0.3,0.8-0.4,2.3-0.4,4.5v8.9
			h-5.2V98.3h4.8v2.9c1.7-2.2,3.9-3.3,6.5-3.3c1.1,0,2.2,0.2,3.2,0.6c1,0.4,1.7,0.9,2.2,1.6c0.5,0.6,0.8,1.4,1,2.2
			c0.2,0.8,0.3,2,0.3,3.5V118.1z M416.5,118.1h-4.9v-2.9c-0.8,1.1-1.8,2-2.9,2.5c-1.1,0.6-2.2,0.8-3.3,0.8c-2.3,0-4.2-0.9-5.8-2.7
			c-1.6-1.8-2.4-4.4-2.4-7.7c0-3.3,0.8-5.9,2.4-7.6c1.6-1.7,3.6-2.6,6-2.6c2.2,0,4.1,0.9,5.7,2.7v-9.8h5.2V118.1z M402.6,107.8
			c0,2.1,0.3,3.6,0.9,4.6c0.8,1.4,2,2.1,3.5,2.1c1.2,0,2.2-0.5,3.1-1.5c0.9-1,1.3-2.6,1.3-4.6c0-2.3-0.4-3.9-1.2-4.9
			c-0.8-1-1.8-1.5-3.1-1.5c-1.2,0-2.3,0.5-3.1,1.5C403,104.3,402.6,105.8,402.6,107.8z M433.1,111.8l5.2,0.9
			c-0.7,1.9-1.7,3.4-3.2,4.4c-1.4,1-3.3,1.5-5.4,1.5c-3.4,0-6-1.1-7.6-3.4c-1.3-1.8-1.9-4.1-1.9-6.8c0-3.3,0.9-5.8,2.6-7.7
			c1.7-1.8,3.9-2.8,6.5-2.8c2.9,0,5.3,1,7,2.9c1.7,1.9,2.5,4.9,2.4,8.9h-13.1c0,1.6,0.5,2.8,1.2,3.6c0.8,0.9,1.8,1.3,3,1.3
			c0.8,0,1.5-0.2,2-0.7C432.4,113.5,432.8,112.8,433.1,111.8z M433.4,106.5c0-1.5-0.4-2.7-1.2-3.4c-0.7-0.8-1.6-1.2-2.7-1.2
			c-1.1,0-2.1,0.4-2.8,1.2s-1.1,2-1.1,3.4H433.4z M447.9,118.1h-5.2V98.3h4.8v2.8c0.8-1.3,1.6-2.2,2.2-2.6c0.7-0.4,1.4-0.6,2.3-0.6
			c1.2,0,2.3,0.3,3.4,1l-1.6,4.6c-0.9-0.6-1.7-0.9-2.5-0.9c-0.7,0-1.3,0.2-1.8,0.6c-0.5,0.4-0.9,1.1-1.2,2.2c-0.3,1-0.4,3.2-0.4,6.6
			V118.1z M469.1,111.8l5.2,0.9c-0.7,1.9-1.7,3.4-3.2,4.4c-1.4,1-3.3,1.5-5.4,1.5c-3.4,0-6-1.1-7.6-3.4c-1.3-1.8-1.9-4.1-1.9-6.8
			c0-3.3,0.9-5.8,2.6-7.7c1.7-1.8,3.9-2.8,6.5-2.8c2.9,0,5.3,1,7,2.9c1.7,1.9,2.5,4.9,2.4,8.9h-13.1c0,1.6,0.5,2.8,1.2,3.6
			c0.8,0.9,1.8,1.3,3,1.3c0.8,0,1.5-0.2,2-0.7C468.4,113.5,468.8,112.8,469.1,111.8z M469.4,106.5c0-1.5-0.4-2.7-1.2-3.4
			c-0.7-0.8-1.6-1.2-2.7-1.2c-1.1,0-2.1,0.4-2.8,1.2c-0.7,0.8-1.1,2-1.1,3.4H469.4z M483.9,118.1h-5.2V98.3h4.8v2.8
			c0.8-1.3,1.6-2.2,2.2-2.6c0.7-0.4,1.4-0.6,2.3-0.6c1.2,0,2.3,0.3,3.4,1l-1.6,4.6c-0.9-0.6-1.7-0.9-2.5-0.9c-0.7,0-1.3,0.2-1.8,0.6
			c-0.5,0.4-0.9,1.1-1.2,2.2c-0.3,1-0.4,3.2-0.4,6.6V118.1z"/>
	</g>
</g>
</svg>
