<?xml version="1.0" encoding="utf-8"?>
<!-- Generator: Adobe Illustrator 18.1.1, SVG Export Plug-In . SVG Version: 6.00 Build 0)  -->
<svg version="1.1" id="图层_1" xmlns="http://www.w3.org/2000/svg" xmlns:xlink="http://www.w3.org/1999/xlink" x="0px" y="0px"
	 viewBox="0 0 1245 773" enable-background="new 0 0 1245 773" xml:space="preserve">
<g>
	<defs>
		<rect id="SVGID_1_" x="33.3" width="2262.4" height="1272.6"/>
	</defs>
	<clipPath id="SVGID_2_">
		<use xlink:href="#SVGID_1_"  overflow="visible"/>
	</clipPath>
	<path clip-path="url(#SVGID_2_)" fill="#C9DAF8" d="M206.2,181.6h753V548h-753L206.2,181.6z"/>
	<path clip-path="url(#SVGID_2_)" fill-opacity="0" d="M562.8,320.1v39.7h0.1v39.7"/>
	<path clip-path="url(#SVGID_2_)" fill="none" stroke="#595959" stroke-linejoin="round" stroke-miterlimit="10" d="M562.8,320.1
		v39.7h0.1v25.6"/>
	<path clip-path="url(#SVGID_2_)" fill="#595959" stroke="#595959" stroke-miterlimit="10" d="M559.1,385.4l3.9,10.7l3.9-10.7H559.1
		z"/>
	<path clip-path="url(#SVGID_2_)" fill="#EA9999" d="M83.3,609.2h351.2l18.5,18.5v92.7l0,0H101.8l-18.5-18.5L83.3,609.2L83.3,609.2z
		"/>
	<path clip-path="url(#SVGID_2_)" fill="none" stroke="#FF0000" stroke-linejoin="round" stroke-miterlimit="10" d="M83.3,609.2
		h351.2l18.5,18.5v92.7l0,0H101.8l-18.5-18.5L83.3,609.2L83.3,609.2z"/>
	<path clip-path="url(#SVGID_2_)" d="M130.8,681.1v-31.5h11.8c2.4,0,4.3,0.3,5.8,1c1.4,0.6,2.6,1.6,3.4,2.9c0.8,1.3,1.3,2.7,1.3,4.2
		c0,1.4-0.4,2.6-1.1,3.8c-0.7,1.2-1.8,2.1-3.3,2.8c1.9,0.6,3.4,1.5,4.4,2.9c1,1.4,1.5,2.9,1.5,4.8c0,1.5-0.3,2.8-1,4.1
		c-0.6,1.3-1.4,2.2-2.3,2.9c-0.9,0.7-2,1.2-3.4,1.6c-1.4,0.3-3.1,0.5-5.1,0.5H130.8z M135,662.8h6.8c1.9,0,3.2-0.1,4-0.3
		c1.1-0.3,1.9-0.8,2.4-1.6c0.5-0.7,0.8-1.7,0.8-2.8c0-1-0.3-1.9-0.8-2.7c-0.5-0.8-1.2-1.4-2.1-1.7c-0.9-0.3-2.5-0.4-4.8-0.4H135
		V662.8z M135,677.4h7.8c1.4,0,2.3,0,2.8-0.1c1-0.2,1.8-0.5,2.4-0.8c0.7-0.4,1.2-1,1.6-1.8c0.4-0.8,0.6-1.6,0.6-2.7
		c0-1.2-0.3-2.2-0.9-3.1c-0.6-0.9-1.4-1.5-2.5-1.8c-1.1-0.4-2.6-0.6-4.6-0.6H135V677.4z M158.4,669.7c0-4.2,1.2-7.3,3.5-9.4
		c2-1.7,4.4-2.5,7.2-2.5c3.1,0,5.7,1,7.7,3.1c2,2,3,4.9,3,8.5c0,2.9-0.4,5.2-1.3,6.9c-0.9,1.7-2.2,3-3.9,3.9
		c-1.7,0.9-3.5,1.4-5.5,1.4c-3.2,0-5.8-1-7.7-3.1C159.4,676.5,158.4,673.5,158.4,669.7z M162.4,669.7c0,2.9,0.6,5.1,1.9,6.6
		c1.3,1.4,2.9,2.2,4.8,2.2c1.9,0,3.5-0.7,4.8-2.2c1.3-1.5,1.9-3.7,1.9-6.7c0-2.8-0.6-5-1.9-6.4c-1.3-1.4-2.9-2.2-4.8-2.2
		c-1.9,0-3.5,0.7-4.8,2.2C163,664.6,162.4,666.8,162.4,669.7z M181.7,681.1l8.3-11.9l-7.7-10.9h4.8l3.5,5.3c0.7,1,1.2,1.9,1.6,2.5
		c0.6-0.9,1.2-1.8,1.7-2.5l3.9-5.4h4.6l-7.9,10.7l8.5,12.1h-4.8l-4.7-7.1l-1.2-1.9l-6,9H181.7z"/>
	<path clip-path="url(#SVGID_2_)" d="M221.2,669.5v-5.3h13.7v12.5c-1.3,1.3-3.3,2.4-5.8,3.4c-2.5,1-5.1,1.5-7.7,1.5
		c-3.3,0-6.2-0.7-8.6-2.1c-2.5-1.4-4.3-3.4-5.5-5.9c-1.2-2.6-1.8-5.4-1.8-8.4c0-3.3,0.7-6.2,2.1-8.7c1.4-2.6,3.4-4.5,6-5.9
		c2-1,4.5-1.5,7.5-1.5c3.9,0,6.9,0.8,9.1,2.5c2.2,1.6,3.6,3.9,4.2,6.8l-6.3,1.2c-0.4-1.5-1.3-2.8-2.5-3.6c-1.2-0.9-2.7-1.4-4.6-1.4
		c-2.8,0-5,0.9-6.7,2.7c-1.6,1.8-2.4,4.4-2.4,7.8c0,3.7,0.8,6.5,2.5,8.4c1.7,1.9,3.9,2.8,6.6,2.8c1.3,0,2.7-0.3,4-0.8
		c1.4-0.5,2.5-1.2,3.5-1.9v-4H221.2z M253.9,673.8l6,1c-0.8,2.2-2,3.9-3.6,5c-1.7,1.2-3.8,1.7-6.3,1.7c-4,0-6.9-1.3-8.8-3.9
		c-1.5-2.1-2.2-4.7-2.2-7.8c0-3.8,1-6.7,2.9-8.9c2-2.1,4.5-3.2,7.5-3.2c3.4,0,6.1,1.1,8,3.4c2,2.2,2.9,5.7,2.8,10.3h-15.1
		c0,1.8,0.5,3.2,1.4,4.2c0.9,1,2.1,1.5,3.5,1.5c0.9,0,1.7-0.3,2.4-0.8C253.1,675.8,253.6,675,253.9,673.8z M254.3,667.7
		c0-1.7-0.5-3.1-1.4-4c-0.9-0.9-1.9-1.4-3.1-1.4c-1.3,0-2.4,0.5-3.3,1.4c-0.9,1-1.3,2.3-1.3,3.9H254.3z M263.8,669.4
		c0-2,0.5-4,1.5-5.8c1-1.9,2.4-3.3,4.2-4.3c1.8-1,3.8-1.5,6.1-1.5c3.4,0,6.3,1.1,8.5,3.4c2.2,2.2,3.3,5.1,3.3,8.5
		c0,3.4-1.1,6.3-3.4,8.6c-2.2,2.3-5,3.4-8.4,3.4c-2.1,0-4.1-0.5-6-1.4c-1.9-1-3.3-2.3-4.3-4.2C264.3,674.2,263.8,672,263.8,669.4z
		 M270,669.7c0,2.3,0.5,4,1.6,5.2c1.1,1.2,2.4,1.8,4,1.8c1.6,0,2.9-0.6,3.9-1.8c1.1-1.2,1.6-3,1.6-5.3c0-2.2-0.5-4-1.6-5.2
		c-1.1-1.2-2.4-1.8-3.9-1.8c-1.6,0-2.9,0.6-4,1.8C270.5,665.7,270,667.4,270,669.7z M291.6,658.3h5.6v3.1c2-2.4,4.4-3.6,7.1-3.6
		c1.5,0,2.7,0.3,3.8,0.9c1.1,0.6,2,1.5,2.7,2.7c1-1.2,2.1-2.1,3.2-2.7c1.2-0.6,2.4-0.9,3.7-0.9c1.7,0,3.1,0.3,4.2,1
		c1.2,0.7,2,1.7,2.6,3c0.4,1,0.6,2.6,0.6,4.7v14.6h-6v-13c0-2.3-0.2-3.7-0.6-4.4c-0.5-0.9-1.4-1.3-2.6-1.3c-0.8,0-1.6,0.3-2.4,0.8
		c-0.7,0.5-1.3,1.3-1.6,2.3c-0.3,1-0.5,2.6-0.5,4.7v10.9h-6v-12.5c0-2.2-0.1-3.7-0.3-4.3c-0.2-0.6-0.6-1.1-1-1.4
		c-0.4-0.3-1.1-0.5-1.8-0.5c-0.9,0-1.8,0.3-2.5,0.8c-0.7,0.5-1.3,1.2-1.6,2.2c-0.3,0.9-0.5,2.5-0.5,4.7v11.1h-6V658.3z M344.4,673.8
		l6,1c-0.8,2.2-2,3.9-3.6,5c-1.7,1.2-3.8,1.7-6.3,1.7c-4,0-6.9-1.3-8.8-3.9c-1.5-2.1-2.2-4.7-2.2-7.8c0-3.8,1-6.7,2.9-8.9
		c2-2.1,4.5-3.2,7.5-3.2c3.4,0,6.1,1.1,8,3.4c2,2.2,2.9,5.7,2.8,10.3h-15.1c0,1.8,0.5,3.2,1.4,4.2c0.9,1,2.1,1.5,3.5,1.5
		c0.9,0,1.7-0.3,2.4-0.8C343.5,675.8,344,675,344.4,673.8z M344.7,667.7c0-1.7-0.5-3.1-1.4-4c-0.9-0.9-1.9-1.4-3.1-1.4
		c-1.3,0-2.4,0.5-3.3,1.4c-0.9,1-1.3,2.3-1.3,3.9H344.7z M366.1,658.3v4.8H362v9.2c0,1.9,0,3,0.1,3.3c0.1,0.3,0.2,0.5,0.5,0.7
		c0.3,0.2,0.6,0.3,1,0.3c0.6,0,1.4-0.2,2.4-0.6l0.5,4.7c-1.4,0.6-3,0.9-4.8,0.9c-1.1,0-2.1-0.2-3-0.6c-0.9-0.4-1.5-0.8-1.9-1.4
		c-0.4-0.6-0.7-1.4-0.8-2.4c-0.1-0.7-0.2-2.1-0.2-4.3v-9.9h-2.8v-4.8h2.8v-4.5l6.1-3.5v8.1H366.1z M376,681.1h-6v-22.8h5.6v3.2
		c1-1.5,1.8-2.6,2.6-3c0.8-0.5,1.6-0.7,2.6-0.7c1.4,0,2.7,0.4,4,1.1l-1.9,5.3c-1-0.7-2-1-2.8-1c-0.8,0-1.5,0.2-2.1,0.7
		c-0.6,0.5-1.1,1.3-1.4,2.5c-0.3,1.2-0.5,3.7-0.5,7.6V681.1z M384.5,658.3h6.4l5.5,16.2l5.3-16.2h6.3l-8.1,21.9l-1.4,4
		c-0.5,1.3-1,2.3-1.5,3c-0.5,0.7-1,1.3-1.7,1.7c-0.6,0.4-1.4,0.8-2.3,1c-0.9,0.2-1.9,0.4-3.1,0.4c-1.2,0-2.3-0.1-3.4-0.4l-0.5-4.7
		c0.9,0.2,1.8,0.3,2.5,0.3c1.4,0,2.4-0.4,3.1-1.3c0.7-0.8,1.2-1.9,1.6-3.1L384.5,658.3z"/>
	<path clip-path="url(#SVGID_2_)" fill="#B6D7A8" d="M530.7,658.2L530.7,658.2c0-11.7,34.4-22.9,95.7-31.2
		c61.3-8.3,144.4-12.9,231.1-12.9l0,0c180.5,0,326.8,19.7,326.8,44.1l0,0c0,24.3-146.3,44.1-326.8,44.1l0,0
		C677,702.2,530.7,682.5,530.7,658.2z"/>
	<path clip-path="url(#SVGID_2_)" fill="none" stroke="#38761D" stroke-linejoin="round" stroke-miterlimit="10" d="M530.7,658.2
		L530.7,658.2c0-11.7,34.4-22.9,95.7-31.2c61.3-8.3,144.4-12.9,231.1-12.9l0,0c180.5,0,326.8,19.7,326.8,44.1l0,0
		c0,24.3-146.3,44.1-326.8,44.1l0,0C677,702.2,530.7,682.5,530.7,658.2z"/>
	<path clip-path="url(#SVGID_2_)" d="M885.1,674.5V643h9.5l5.7,21.5l5.6-21.5h9.5v31.5h-5.9v-24.8l-6.3,24.8h-6.1l-6.2-24.8v24.8
		H885.1z M926.2,658.6l-5.5-1c0.6-2.2,1.7-3.8,3.2-4.9c1.5-1.1,3.7-1.6,6.7-1.6c2.7,0,4.7,0.3,6,1c1.3,0.6,2.2,1.4,2.8,2.4
		c0.5,1,0.8,2.8,0.8,5.4l0,7.1c0,2,0.1,3.5,0.3,4.4c0.2,1,0.6,2,1.1,3.1h-6c-0.2-0.4-0.4-1-0.6-1.8c-0.1-0.4-0.2-0.6-0.2-0.7
		c-1,1-2.1,1.8-3.3,2.3c-1.2,0.5-2.4,0.7-3.8,0.7c-2.3,0-4.2-0.6-5.5-1.9c-1.4-1.3-2-2.9-2-4.8c0-1.3,0.3-2.5,0.9-3.5
		c0.6-1,1.5-1.8,2.6-2.3c1.1-0.5,2.7-1,4.8-1.4c2.8-0.5,4.8-1,5.9-1.5V659c0-1.2-0.3-2-0.8-2.5c-0.6-0.5-1.6-0.7-3.2-0.7
		c-1.1,0-1.9,0.2-2.5,0.7C927.1,656.8,926.6,657.6,926.2,658.6z M934.3,663.5c-0.8,0.2-2,0.6-3.7,0.9c-1.7,0.3-2.8,0.7-3.3,1
		c-0.8,0.6-1.2,1.3-1.2,2.1c0,0.8,0.3,1.6,1,2.2c0.6,0.6,1.4,0.9,2.4,0.9c1.1,0,2.1-0.4,3.1-1.1c0.7-0.5,1.2-1.2,1.4-2
		c0.1-0.5,0.2-1.5,0.2-2.9V663.5z M956.6,651.7v4.8h-4.1v9.2c0,1.9,0,3,0.1,3.3c0.1,0.3,0.2,0.5,0.5,0.7c0.3,0.2,0.6,0.3,1,0.3
		c0.6,0,1.4-0.2,2.4-0.6l0.5,4.7c-1.4,0.6-3,0.9-4.8,0.9c-1.1,0-2.1-0.2-3-0.6c-0.9-0.4-1.5-0.8-1.9-1.4c-0.4-0.6-0.7-1.4-0.8-2.4
		c-0.1-0.7-0.2-2.1-0.2-4.3v-9.9h-2.8v-4.8h2.8v-4.5l6.1-3.5v8.1H956.6z M974,667.2l6,1c-0.8,2.2-2,3.9-3.6,5
		c-1.7,1.2-3.8,1.7-6.3,1.7c-4,0-6.9-1.3-8.8-3.9c-1.5-2.1-2.2-4.7-2.2-7.8c0-3.8,1-6.7,2.9-8.9c2-2.1,4.5-3.2,7.5-3.2
		c3.4,0,6.1,1.1,8,3.4c2,2.2,2.9,5.7,2.8,10.3h-15.1c0,1.8,0.5,3.2,1.4,4.2c0.9,1,2.1,1.5,3.5,1.5c0.9,0,1.7-0.3,2.4-0.8
		C973.2,669.2,973.7,668.4,974,667.2z M974.4,661.1c0-1.7-0.5-3.1-1.4-4s-1.9-1.4-3.1-1.4c-1.3,0-2.4,0.5-3.3,1.4
		c-0.9,1-1.3,2.3-1.3,3.9H974.4z M991.1,674.5h-6v-22.8h5.6v3.2c1-1.5,1.8-2.6,2.6-3c0.8-0.5,1.6-0.7,2.6-0.7c1.4,0,2.7,0.4,4,1.1
		l-1.9,5.3c-1-0.7-2-1-2.8-1c-0.8,0-1.5,0.2-2.1,0.7c-0.6,0.5-1.1,1.3-1.4,2.5c-0.3,1.2-0.5,3.7-0.5,7.6V674.5z M1002.4,648.6V643h6
		v5.6H1002.4z M1002.4,674.5v-22.8h6v22.8H1002.4z M1019.1,658.6l-5.5-1c0.6-2.2,1.7-3.8,3.2-4.9c1.5-1.1,3.7-1.6,6.7-1.6
		c2.7,0,4.7,0.3,6,1c1.3,0.6,2.2,1.4,2.8,2.4c0.5,1,0.8,2.8,0.8,5.4l0,7.1c0,2,0.1,3.5,0.3,4.4c0.2,1,0.6,2,1.1,3.1h-6
		c-0.2-0.4-0.4-1-0.6-1.8c-0.1-0.4-0.2-0.6-0.2-0.7c-1,1-2.1,1.8-3.3,2.3c-1.2,0.5-2.4,0.7-3.8,0.7c-2.3,0-4.2-0.6-5.5-1.9
		c-1.4-1.3-2-2.9-2-4.8c0-1.3,0.3-2.5,0.9-3.5c0.6-1,1.5-1.8,2.6-2.3c1.1-0.5,2.7-1,4.8-1.4c2.8-0.5,4.8-1,5.9-1.5V659
		c0-1.2-0.3-2-0.8-2.5c-0.6-0.5-1.6-0.7-3.2-0.7c-1.1,0-1.9,0.2-2.5,0.7C1019.9,656.8,1019.5,657.6,1019.1,658.6z M1027.2,663.5
		c-0.8,0.2-2,0.6-3.7,0.9c-1.7,0.3-2.8,0.7-3.3,1c-0.8,0.6-1.2,1.3-1.2,2.1c0,0.8,0.3,1.6,1,2.2c0.6,0.6,1.4,0.9,2.4,0.9
		c1.1,0,2.1-0.4,3.1-1.1c0.7-0.5,1.2-1.2,1.4-2c0.1-0.5,0.2-1.5,0.2-2.9V663.5z M1039.1,674.5V643h6v31.5H1039.1z"/>
	<path clip-path="url(#SVGID_2_)" fill="#A4C2F4" d="M435.8,414L435.8,414c0-8,6.5-14.4,14.4-14.4h225.3c3.8,0,7.5,1.5,10.2,4.2
		c2.7,2.7,4.2,6.4,4.2,10.2v57.6c0,8-6.5,14.4-14.4,14.4H450.2c-8,0-14.4-6.5-14.4-14.4V414z"/>
	<path clip-path="url(#SVGID_2_)" fill="none" stroke="#0000FF" stroke-linejoin="round" stroke-miterlimit="10" d="M435.8,414
		L435.8,414c0-8,6.5-14.4,14.4-14.4h225.3c3.8,0,7.5,1.5,10.2,4.2c2.7,2.7,4.2,6.4,4.2,10.2v57.6c0,8-6.5,14.4-14.4,14.4H450.2
		c-8,0-14.4-6.5-14.4-14.4V414z"/>
	<path clip-path="url(#SVGID_2_)" d="M512.3,459.1v-31.5h6.3l7.4,22.3c0.7,2.1,1.2,3.6,1.5,4.7c0.4-1.2,0.9-2.8,1.7-5l7.5-21.9h5.6
		v31.5h-4v-26.3l-9.1,26.3h-3.8l-9.1-26.8v26.8H512.3z M564.2,451.8l4,0.5c-0.6,2.3-1.8,4.1-3.5,5.4c-1.7,1.3-3.9,1.9-6.5,1.9
		c-3.3,0-6-1-8-3.1c-1.9-2.1-2.9-4.9-2.9-8.7c0-3.9,1-6.8,2.9-8.9c2-2.1,4.6-3.2,7.7-3.2c3,0,5.5,1,7.4,3.1c1.9,2.1,2.9,5,2.9,8.7
		c0,0.2,0,0.6,0,1h-17c0.1,2.5,0.9,4.4,2.1,5.8c1.3,1.3,2.9,2,4.8,2c1.4,0,2.6-0.4,3.6-1.1C562.8,454.6,563.6,453.4,564.2,451.8z
		 M551.5,445.5h12.7c-0.2-1.9-0.7-3.4-1.5-4.3c-1.2-1.5-2.8-2.2-4.8-2.2c-1.8,0-3.3,0.6-4.5,1.8C552.3,442,551.6,443.6,551.5,445.5z
		 M571.5,452.3l3.8-0.6c0.2,1.5,0.8,2.7,1.8,3.5c1,0.8,2.4,1.2,4.1,1.2s3.1-0.4,3.9-1.1c0.9-0.7,1.3-1.6,1.3-2.6
		c0-0.9-0.4-1.5-1.1-2.1c-0.5-0.3-1.8-0.8-3.9-1.3c-2.8-0.7-4.8-1.4-5.9-1.9c-1.1-0.5-1.9-1.2-2.5-2.1c-0.6-0.9-0.8-2-0.8-3.1
		c0-1,0.2-1.9,0.7-2.8c0.5-0.9,1.1-1.6,1.9-2.2c0.6-0.4,1.4-0.8,2.4-1.1c1.1-0.3,2.2-0.5,3.4-0.5c1.8,0,3.4,0.3,4.7,0.8
		c1.4,0.5,2.3,1.2,3,2.1c0.7,0.9,1.1,2.1,1.4,3.5l-3.8,0.5c-0.2-1.2-0.7-2.1-1.5-2.8c-0.8-0.7-2-1-3.5-1c-1.8,0-3.1,0.3-3.8,0.9
		c-0.7,0.6-1.1,1.3-1.1,2.1c0,0.5,0.1,0.9,0.4,1.4c0.3,0.4,0.8,0.8,1.5,1c0.4,0.1,1.5,0.5,3.4,1c2.7,0.7,4.7,1.3,5.7,1.8
		c1.1,0.5,1.9,1.1,2.5,2c0.6,0.9,0.9,2,0.9,3.3c0,1.3-0.4,2.5-1.1,3.6c-0.7,1.1-1.8,2-3.2,2.7c-1.4,0.6-3,0.9-4.8,0.9
		c-2.9,0-5.2-0.6-6.8-1.8C572.9,456.6,571.9,454.7,571.5,452.3z M595,459.1v-31.5h3.9v11.3c1.8-2.1,4.1-3.1,6.8-3.1
		c1.7,0,3.2,0.3,4.4,1c1.3,0.7,2.1,1.6,2.7,2.8c0.5,1.2,0.8,2.9,0.8,5.1v14.4h-3.9v-14.4c0-1.9-0.4-3.4-1.3-4.2s-2-1.3-3.6-1.3
		c-1.1,0-2.2,0.3-3.2,0.9c-1,0.6-1.7,1.4-2.2,2.4c-0.4,1-0.6,2.4-0.6,4.2v12.5H595z"/>
	<path clip-path="url(#SVGID_2_)" fill="#6D9EEB" d="M512.5,484.7L512.5,484.7c0-6.1,4.4-11,9.8-11l0,0c2.6,0,5.1,1.2,6.9,3.2
		c1.8,2.1,2.9,4.9,2.9,7.8l0,0c0,6.1-4.4,11-9.8,11l0,0C516.9,495.7,512.5,490.8,512.5,484.7z"/>
	<path clip-path="url(#SVGID_2_)" fill="#6D9EEB" d="M605.6,484.7L605.6,484.7c0-6.1,4.4-11,9.8-11l0,0c2.6,0,5.1,1.2,6.9,3.2
		c1.8,2.1,2.9,4.9,2.9,7.8l0,0c0,6.1-4.4,11-9.8,11l0,0C610,495.7,605.6,490.8,605.6,484.7z"/>
	<path clip-path="url(#SVGID_2_)" fill-opacity="0" d="M615.4,495.7c0,29.6,60.5,44.4,121,59.2c60.5,14.8,121,29.6,121,59.2"/>
	<path clip-path="url(#SVGID_2_)" fill="none" stroke="#6AA84F" stroke-linejoin="round" stroke-miterlimit="10" d="M615.4,495.7
		c0,29.6,60.5,44.4,121,59.2c30.3,7.4,60.5,14.8,83.2,24c11.3,4.6,20.8,9.7,27.4,15.5c1.7,1.4,3.1,2.9,4.4,4.5
		c0.3,0.4,0.6,0.8,0.9,1.2c0.1,0.2,0.3,0.4,0.4,0.6l0,0.1"/>
	<path clip-path="url(#SVGID_2_)" fill="#6AA84F" stroke="#6AA84F" stroke-miterlimit="10" d="M849.2,602l7.1,8.9l0.2-11.4
		L849.2,602z"/>
	<path clip-path="url(#SVGID_2_)" fill-opacity="0" d="M522.3,495.7c0,28.4-63.5,42.6-127.1,56.8c-63.5,14.2-127.1,28.4-127.1,56.7"
		/>
	<path clip-path="url(#SVGID_2_)" fill="none" stroke="#FF0000" stroke-linejoin="round" stroke-miterlimit="10" d="M522.3,495.7
		c0,28.4-63.5,42.6-127.1,56.8c-31.8,7.1-63.5,14.2-87.4,23.1c-11.9,4.4-21.8,9.3-28.8,14.8c-1.7,1.4-3.3,2.8-4.6,4.3
		c-0.3,0.4-0.7,0.7-1,1.1l-0.2,0.3"/>
	<path clip-path="url(#SVGID_2_)" fill="#FF0000" stroke="#FF0000" stroke-miterlimit="10" d="M269.6,594.6l-0.2,11.4l7.5-8.6
		L269.6,594.6z"/>
	<path clip-path="url(#SVGID_2_)" fill="#A4C2F4" d="M435.8,248L435.8,248c0-8,6.5-14.4,14.4-14.4h225.3c3.8,0,7.5,1.5,10.2,4.2
		c2.7,2.7,4.2,6.4,4.2,10.2v57.6c0,8-6.5,14.4-14.4,14.4H450.2c-8,0-14.4-6.5-14.4-14.4V248z"/>
	<path clip-path="url(#SVGID_2_)" fill="none" stroke="#0000FF" stroke-linejoin="round" stroke-miterlimit="10" d="M435.8,248
		L435.8,248c0-8,6.5-14.4,14.4-14.4h225.3c3.8,0,7.5,1.5,10.2,4.2c2.7,2.7,4.2,6.4,4.2,10.2v57.6c0,8-6.5,14.4-14.4,14.4H450.2
		c-8,0-14.4-6.5-14.4-14.4V248z"/>
	<path clip-path="url(#SVGID_2_)" d="M502.5,283l3.9-0.3c0.2,1.6,0.6,2.9,1.3,3.9c0.7,1,1.7,1.8,3.2,2.5c1.4,0.6,3.1,0.9,4.9,0.9
		c1.6,0,3-0.2,4.2-0.7c1.2-0.5,2.1-1.1,2.7-1.9c0.6-0.8,0.9-1.7,0.9-2.7c0-1-0.3-1.8-0.9-2.6c-0.6-0.7-1.5-1.4-2.8-1.9
		c-0.9-0.3-2.7-0.8-5.6-1.5c-2.9-0.7-4.9-1.4-6-2c-1.5-0.8-2.7-1.8-3.4-2.9c-0.7-1.2-1.1-2.5-1.1-3.9c0-1.6,0.5-3,1.4-4.4
		c0.9-1.4,2.2-2.5,3.9-3.2c1.7-0.7,3.7-1.1,5.8-1.1c2.3,0,4.4,0.4,6.1,1.1c1.8,0.7,3.2,1.8,4.1,3.3c1,1.4,1.5,3.1,1.5,4.9l-4,0.3
		c-0.2-2-1-3.5-2.2-4.5c-1.2-1-3-1.5-5.4-1.5c-2.5,0-4.4,0.5-5.5,1.4c-1.2,0.9-1.7,2-1.7,3.4c0,1.1,0.4,2,1.3,2.8
		c0.8,0.7,2.9,1.5,6.3,2.3c3.4,0.8,5.7,1.4,7,2c1.8,0.8,3.2,1.9,4.1,3.2c0.9,1.3,1.3,2.8,1.3,4.5c0,1.7-0.5,3.3-1.4,4.8
		c-1,1.5-2.3,2.6-4.1,3.5c-1.8,0.8-3.8,1.2-6.1,1.2c-2.8,0-5.2-0.4-7.2-1.3c-1.9-0.8-3.4-2.1-4.5-3.8
		C503.1,287,502.5,285.1,502.5,283z M547.6,284.8l3.8,0.5c-0.4,2.6-1.5,4.7-3.2,6.1c-1.7,1.5-3.8,2.2-6.3,2.2c-3.1,0-5.6-1-7.5-3.1
		c-1.9-2-2.8-5-2.8-8.8c0-2.5,0.4-4.6,1.2-6.5s2-3.2,3.7-4.1c1.7-0.9,3.5-1.4,5.4-1.4c2.5,0,4.5,0.6,6.1,1.9c1.6,1.3,2.6,3,3,5.3
		l-3.8,0.6c-0.4-1.5-1-2.7-1.9-3.4c-0.9-0.8-2-1.2-3.3-1.2c-1.9,0-3.5,0.7-4.8,2.1c-1.2,1.4-1.8,3.6-1.8,6.6c0,3.1,0.6,5.3,1.8,6.7
		c1.2,1.4,2.7,2.1,4.6,2.1c1.5,0,2.8-0.5,3.8-1.4C546.7,288.2,547.3,286.7,547.6,284.8z M570.3,285.8l4,0.5
		c-0.6,2.3-1.8,4.1-3.5,5.4c-1.7,1.3-3.9,1.9-6.5,1.9c-3.3,0-6-1-8-3.1c-1.9-2.1-2.9-4.9-2.9-8.7c0-3.9,1-6.8,2.9-8.9
		c2-2.1,4.6-3.2,7.7-3.2c3,0,5.5,1,7.4,3.1c1.9,2.1,2.9,5,2.9,8.7c0,0.2,0,0.6,0,1h-17c0.1,2.5,0.9,4.4,2.1,5.8c1.3,1.3,2.9,2,4.8,2
		c1.4,0,2.6-0.4,3.6-1.1C568.9,288.6,569.7,287.4,570.3,285.8z M557.6,279.6h12.7c-0.2-1.9-0.7-3.4-1.5-4.3
		c-1.2-1.5-2.8-2.2-4.8-2.2c-1.8,0-3.3,0.6-4.5,1.8C558.4,276,557.7,277.6,557.6,279.6z M579.2,293.2v-22.8h3.5v3.2
		c1.7-2.5,4.1-3.8,7.3-3.8c1.4,0,2.6,0.2,3.8,0.7c1.2,0.5,2,1.1,2.6,2c0.6,0.8,1,1.7,1.2,2.8c0.1,0.7,0.2,2,0.2,3.8v14h-3.9v-13.9
		c0-1.6-0.2-2.7-0.5-3.5c-0.3-0.8-0.8-1.4-1.6-1.9c-0.8-0.5-1.7-0.7-2.7-0.7c-1.6,0-3.1,0.5-4.3,1.6c-1.2,1-1.8,3-1.8,5.9v12.4
		H579.2z M619.2,285.8l4,0.5c-0.6,2.3-1.8,4.1-3.5,5.4c-1.7,1.3-3.9,1.9-6.5,1.9c-3.3,0-6-1-8-3.1c-1.9-2.1-2.9-4.9-2.9-8.7
		c0-3.9,1-6.8,2.9-8.9c2-2.1,4.6-3.2,7.7-3.2c3,0,5.5,1,7.4,3.1c1.9,2.1,2.9,5,2.9,8.7c0,0.2,0,0.6,0,1h-17c0.1,2.5,0.9,4.4,2.1,5.8
		c1.3,1.3,2.9,2,4.8,2c1.4,0,2.6-0.4,3.6-1.1C617.8,288.6,618.6,287.4,619.2,285.8z M606.5,279.6h12.7c-0.2-1.9-0.7-3.4-1.5-4.3
		c-1.2-1.5-2.8-2.2-4.8-2.2c-1.8,0-3.3,0.6-4.5,1.8C607.3,276,606.6,277.6,606.5,279.6z"/>
	<path clip-path="url(#SVGID_2_)" fill="#A4C2F4" d="M608.1,47.9L608.1,47.9c0-8,6.5-14.4,14.4-14.4h497.4c3.8,0,7.5,1.5,10.2,4.2
		c2.7,2.7,4.2,6.4,4.2,10.2v57.6c0,8-6.5,14.4-14.4,14.4H622.5c-8,0-14.4-6.5-14.4-14.4V47.9z"/>
	<path clip-path="url(#SVGID_2_)" fill="none" stroke="#0000FF" stroke-linejoin="round" stroke-miterlimit="10" d="M608.1,47.9
		L608.1,47.9c0-8,6.5-14.4,14.4-14.4h497.4c3.8,0,7.5,1.5,10.2,4.2c2.7,2.7,4.2,6.4,4.2,10.2v57.6c0,8-6.5,14.4-14.4,14.4H622.5
		c-8,0-14.4-6.5-14.4-14.4V47.9z"/>
	<path clip-path="url(#SVGID_2_)" d="M679.1,93V61.5H691c2.1,0,3.7,0.1,4.8,0.3c1.5,0.3,2.8,0.8,3.9,1.5c1.1,0.7,1.9,1.7,2.5,3
		c0.6,1.3,1,2.7,1,4.3c0,2.7-0.9,4.9-2.6,6.8c-1.7,1.8-4.8,2.8-9.2,2.8h-8.1V93H679.1z M683.3,76.5h8.1c2.7,0,4.6-0.5,5.7-1.5
		c1.1-1,1.7-2.4,1.7-4.2c0-1.3-0.3-2.5-1-3.4c-0.7-0.9-1.5-1.5-2.7-1.8c-0.7-0.2-2-0.3-3.9-0.3h-8.1V76.5z M723.6,85.7l4,0.5
		c-0.6,2.3-1.8,4.1-3.5,5.4c-1.7,1.3-3.9,1.9-6.5,1.9c-3.3,0-6-1-8-3.1c-1.9-2.1-2.9-4.9-2.9-8.7c0-3.9,1-6.8,2.9-8.9
		c2-2.1,4.6-3.2,7.7-3.2c3,0,5.5,1,7.4,3.1c1.9,2.1,2.9,5,2.9,8.7c0,0.2,0,0.6,0,1h-17c0.1,2.5,0.9,4.4,2.1,5.8c1.3,1.3,2.9,2,4.8,2
		c1.4,0,2.6-0.4,3.6-1.1C722.2,88.5,723,87.3,723.6,85.7z M710.9,79.4h12.7c-0.2-1.9-0.7-3.4-1.5-4.3c-1.2-1.5-2.8-2.2-4.8-2.2
		c-1.8,0-3.3,0.6-4.5,1.8C711.7,75.9,711,77.5,710.9,79.4z M732.4,93V70.2h3.5v3.5c0.9-1.6,1.7-2.7,2.4-3.2c0.8-0.5,1.6-0.8,2.5-0.8
		c1.3,0,2.6,0.4,4,1.3l-1.3,3.6c-1-0.6-1.9-0.8-2.8-0.8c-0.9,0-1.6,0.3-2.3,0.8c-0.7,0.5-1.1,1.2-1.4,2.1c-0.4,1.4-0.7,2.9-0.7,4.5
		V93H732.4z M745.5,86.2l3.8-0.6c0.2,1.5,0.8,2.7,1.8,3.5c1,0.8,2.4,1.2,4.1,1.2c1.8,0,3.1-0.4,3.9-1.1c0.9-0.7,1.3-1.6,1.3-2.6
		c0-0.9-0.4-1.5-1.1-2.1c-0.5-0.3-1.8-0.8-3.9-1.3c-2.8-0.7-4.8-1.4-5.9-1.9c-1.1-0.5-1.9-1.2-2.5-2.1c-0.6-0.9-0.8-2-0.8-3.1
		c0-1,0.2-1.9,0.7-2.8c0.5-0.9,1.1-1.6,1.9-2.2c0.6-0.4,1.4-0.8,2.4-1.1c1.1-0.3,2.2-0.5,3.4-0.5c1.8,0,3.4,0.3,4.7,0.8
		c1.4,0.5,2.3,1.2,3,2.1c0.7,0.9,1.1,2.1,1.4,3.5l-3.8,0.5c-0.2-1.2-0.7-2.1-1.5-2.8c-0.8-0.7-2-1-3.5-1c-1.8,0-3.1,0.3-3.8,0.9
		c-0.7,0.6-1.1,1.3-1.1,2.1c0,0.5,0.1,0.9,0.4,1.4c0.3,0.4,0.8,0.8,1.5,1c0.4,0.1,1.5,0.5,3.4,1c2.7,0.7,4.7,1.3,5.7,1.8
		c1.1,0.5,1.9,1.1,2.5,2c0.6,0.9,0.9,2,0.9,3.3c0,1.3-0.4,2.5-1.1,3.6c-0.7,1.1-1.8,2-3.2,2.7c-1.4,0.6-3,0.9-4.8,0.9
		c-2.9,0-5.2-0.6-6.8-1.8C746.9,90.5,745.9,88.6,745.5,86.2z M769,101.8V70.2h3.5v2.9c0.8-1.2,1.8-2,2.8-2.6
		c1.1-0.6,2.3-0.9,3.8-0.9c1.9,0,3.6,0.5,5.1,1.5c1.5,1,2.6,2.4,3.4,4.2c0.8,1.8,1.1,3.8,1.1,6c0,2.3-0.4,4.4-1.3,6.3
		c-0.8,1.9-2,3.3-3.6,4.3c-1.6,1-3.3,1.5-5,1.5c-1.3,0-2.4-0.3-3.5-0.8s-1.9-1.2-2.5-2.1v11.1H769z M772.5,81.8
		c0,2.9,0.6,5.1,1.8,6.5c1.2,1.4,2.6,2.1,4.3,2.1c1.7,0,3.2-0.7,4.4-2.2c1.2-1.5,1.8-3.7,1.8-6.8c0-2.9-0.6-5.1-1.8-6.5
		c-1.2-1.4-2.6-2.2-4.3-2.2c-1.6,0-3.1,0.8-4.4,2.3C773.2,76.6,772.5,78.8,772.5,81.8z M809.1,85.7l4,0.5c-0.6,2.3-1.8,4.1-3.5,5.4
		c-1.7,1.3-3.9,1.9-6.5,1.9c-3.3,0-6-1-8-3.1c-1.9-2.1-2.9-4.9-2.9-8.7c0-3.9,1-6.8,2.9-8.9c2-2.1,4.6-3.2,7.7-3.2
		c3,0,5.5,1,7.4,3.1c1.9,2.1,2.9,5,2.9,8.7c0,0.2,0,0.6,0,1h-17c0.1,2.5,0.9,4.4,2.1,5.8c1.3,1.3,2.9,2,4.8,2c1.4,0,2.6-0.4,3.6-1.1
		C807.7,88.5,808.5,87.3,809.1,85.7z M796.4,79.4h12.7c-0.2-1.9-0.7-3.4-1.5-4.3c-1.2-1.5-2.8-2.2-4.8-2.2c-1.8,0-3.3,0.6-4.5,1.8
		C797.2,75.9,796.5,77.5,796.4,79.4z M832.8,84.7l3.8,0.5c-0.4,2.6-1.5,4.7-3.2,6.1c-1.7,1.5-3.8,2.2-6.3,2.2c-3.1,0-5.6-1-7.5-3.1
		c-1.9-2-2.8-5-2.8-8.8c0-2.5,0.4-4.6,1.2-6.5c0.8-1.8,2-3.2,3.7-4.1c1.7-0.9,3.5-1.4,5.4-1.4c2.5,0,4.5,0.6,6.1,1.9s2.6,3,3,5.3
		l-3.8,0.6c-0.4-1.5-1-2.7-1.9-3.4c-0.9-0.8-2-1.2-3.3-1.2c-1.9,0-3.5,0.7-4.8,2.1s-1.8,3.6-1.8,6.6c0,3.1,0.6,5.3,1.8,6.7
		c1.2,1.4,2.7,2.1,4.6,2.1c1.5,0,2.8-0.5,3.8-1.4C831.9,88,832.5,86.6,832.8,84.7z M848.4,89.6l0.6,3.4c-1.1,0.2-2,0.3-2.9,0.3
		c-1.4,0-2.5-0.2-3.3-0.7c-0.8-0.4-1.3-1-1.6-1.7c-0.3-0.7-0.5-2.3-0.5-4.6V73.2h-2.8v-3h2.8v-5.6l3.8-2.3v8h3.9v3h-3.9v13.4
		c0,1.1,0.1,1.8,0.2,2.1c0.1,0.3,0.4,0.6,0.7,0.8c0.3,0.2,0.8,0.3,1.4,0.3C847.1,89.7,847.6,89.7,848.4,89.6z M852.1,66v-4.5h3.9V66
		H852.1z M852.1,93V70.2h3.9V93H852.1z M868.2,93l-8.7-22.8h4.1l4.9,13.7c0.5,1.5,1,3,1.5,4.6c0.3-1.2,0.8-2.6,1.4-4.3l5-13.9h4
		L871.8,93H868.2z M899.5,85.7l4,0.5c-0.6,2.3-1.8,4.1-3.5,5.4c-1.7,1.3-3.9,1.9-6.5,1.9c-3.3,0-6-1-8-3.1c-1.9-2.1-2.9-4.9-2.9-8.7
		c0-3.9,1-6.8,2.9-8.9c2-2.1,4.6-3.2,7.7-3.2c3,0,5.5,1,7.4,3.1c1.9,2.1,2.9,5,2.9,8.7c0,0.2,0,0.6,0,1h-17c0.1,2.5,0.9,4.4,2.1,5.8
		c1.3,1.3,2.9,2,4.8,2c1.4,0,2.6-0.4,3.6-1.1C898.1,88.5,898.9,87.3,899.5,85.7z M886.8,79.4h12.7c-0.2-1.9-0.7-3.4-1.5-4.3
		c-1.2-1.5-2.8-2.2-4.8-2.2c-1.8,0-3.3,0.6-4.5,1.8C887.6,75.9,886.9,77.5,886.8,79.4z"/>
	<path clip-path="url(#SVGID_2_)" d="M928.8,81.5l6.1,2c-0.9,3.4-2.5,6-4.7,7.7c-2.2,1.7-5,2.5-8.4,2.5c-4.2,0-7.6-1.4-10.3-4.3
		c-2.7-2.9-4-6.8-4-11.7c0-5.2,1.4-9.3,4.1-12.2c2.7-2.9,6.2-4.3,10.6-4.3c3.9,0,7,1.1,9.4,3.4c1.4,1.4,2.5,3.3,3.2,5.8l-6.3,1.5
		c-0.4-1.6-1.1-2.9-2.3-3.9c-1.2-1-2.6-1.4-4.3-1.4c-2.3,0-4.2,0.8-5.7,2.5c-1.4,1.7-2.2,4.4-2.2,8.1c0,4,0.7,6.8,2.1,8.5
		c1.4,1.7,3.3,2.5,5.6,2.5c1.7,0,3.1-0.5,4.3-1.6C927.4,85.5,928.2,83.8,928.8,81.5z M944.8,77.2l-5.5-1c0.6-2.2,1.7-3.8,3.2-4.9
		c1.5-1.1,3.7-1.6,6.7-1.6c2.7,0,4.7,0.3,6,1c1.3,0.6,2.2,1.4,2.8,2.4c0.5,1,0.8,2.8,0.8,5.4l0,7.1c0,2,0.1,3.5,0.3,4.4
		c0.2,1,0.6,2,1.1,3.1h-6c-0.2-0.4-0.4-1-0.6-1.8c-0.1-0.4-0.2-0.6-0.2-0.7c-1,1-2.1,1.8-3.3,2.3c-1.2,0.5-2.4,0.7-3.8,0.7
		c-2.3,0-4.2-0.6-5.5-1.9c-1.4-1.3-2-2.9-2-4.8c0-1.3,0.3-2.5,0.9-3.5c0.6-1,1.5-1.8,2.6-2.3c1.1-0.5,2.7-1,4.8-1.4
		c2.8-0.5,4.8-1,5.9-1.5v-0.6c0-1.2-0.3-2-0.8-2.5c-0.6-0.5-1.6-0.7-3.2-0.7c-1.1,0-1.9,0.2-2.5,0.7
		C945.7,75.4,945.2,76.1,944.8,77.2z M952.9,82.1c-0.8,0.2-2,0.6-3.7,0.9c-1.7,0.3-2.8,0.7-3.3,1c-0.8,0.6-1.2,1.3-1.2,2.1
		c0,0.8,0.3,1.6,1,2.2c0.6,0.6,1.4,0.9,2.4,0.9c1.1,0,2.1-0.4,3.1-1.1c0.7-0.5,1.2-1.2,1.4-2c0.1-0.5,0.2-1.5,0.2-2.9V82.1z
		 M964.3,70.2h5.6v3.1c2-2.4,4.4-3.6,7.1-3.6c1.5,0,2.7,0.3,3.8,0.9c1.1,0.6,2,1.5,2.7,2.7c1-1.2,2.1-2.1,3.2-2.7
		c1.2-0.6,2.4-0.9,3.7-0.9c1.7,0,3.1,0.3,4.2,1c1.2,0.7,2,1.7,2.6,3c0.4,1,0.6,2.6,0.6,4.7V93h-6V80c0-2.3-0.2-3.7-0.6-4.4
		c-0.5-0.9-1.4-1.3-2.6-1.3c-0.8,0-1.6,0.3-2.4,0.8c-0.7,0.5-1.3,1.3-1.6,2.3c-0.3,1-0.5,2.6-0.5,4.7V93h-6V80.5
		c0-2.2-0.1-3.7-0.3-4.3c-0.2-0.6-0.6-1.1-1-1.4c-0.4-0.3-1.1-0.5-1.8-0.5c-0.9,0-1.8,0.3-2.5,0.8c-0.7,0.5-1.3,1.2-1.6,2.2
		c-0.3,0.9-0.5,2.5-0.5,4.7V93h-6V70.2z M1017.1,85.8l6,1c-0.8,2.2-2,3.9-3.6,5c-1.7,1.2-3.8,1.7-6.3,1.7c-4,0-6.9-1.3-8.8-3.9
		c-1.5-2.1-2.2-4.7-2.2-7.8c0-3.8,1-6.7,2.9-8.9c2-2.1,4.5-3.2,7.5-3.2c3.4,0,6.1,1.1,8,3.4c2,2.2,2.9,5.7,2.8,10.3h-15.1
		c0,1.8,0.5,3.2,1.4,4.2c0.9,1,2.1,1.5,3.5,1.5c0.9,0,1.7-0.3,2.4-0.8C1016.3,87.8,1016.8,86.9,1017.1,85.8z M1017.5,79.7
		c0-1.7-0.5-3.1-1.4-4c-0.9-0.9-1.9-1.4-3.1-1.4c-1.3,0-2.4,0.5-3.3,1.4c-0.9,1-1.3,2.3-1.3,3.9H1017.5z M1034.1,93h-6V70.2h5.6v3.2
		c1-1.5,1.8-2.6,2.6-3c0.8-0.5,1.6-0.7,2.6-0.7c1.4,0,2.7,0.4,4,1.1l-1.9,5.3c-1-0.7-2-1-2.8-1c-0.8,0-1.5,0.2-2.1,0.7
		c-0.6,0.5-1.1,1.3-1.4,2.5c-0.3,1.2-0.5,3.7-0.5,7.6V93z M1050,77.2l-5.5-1c0.6-2.2,1.7-3.8,3.2-4.9c1.5-1.1,3.7-1.6,6.7-1.6
		c2.7,0,4.7,0.3,6,1c1.3,0.6,2.2,1.4,2.8,2.4c0.5,1,0.8,2.8,0.8,5.4l0,7.1c0,2,0.1,3.5,0.3,4.4c0.2,1,0.6,2,1.1,3.1h-6
		c-0.2-0.4-0.4-1-0.6-1.8c-0.1-0.4-0.2-0.6-0.2-0.7c-1,1-2.1,1.8-3.3,2.3c-1.2,0.5-2.4,0.7-3.8,0.7c-2.3,0-4.2-0.6-5.5-1.9
		c-1.4-1.3-2-2.9-2-4.8c0-1.3,0.3-2.5,0.9-3.5c0.6-1,1.5-1.8,2.6-2.3c1.1-0.5,2.7-1,4.8-1.4c2.8-0.5,4.8-1,5.9-1.5v-0.6
		c0-1.2-0.3-2-0.8-2.5c-0.6-0.5-1.6-0.7-3.2-0.7c-1.1,0-1.9,0.2-2.5,0.7C1050.8,75.4,1050.3,76.1,1050,77.2z M1058,82.1
		c-0.8,0.2-2,0.6-3.7,0.9c-1.7,0.3-2.8,0.7-3.3,1c-0.8,0.6-1.2,1.3-1.2,2.1c0,0.8,0.3,1.6,1,2.2c0.6,0.6,1.4,0.9,2.4,0.9
		c1.1,0,2.1-0.4,3.1-1.1c0.7-0.5,1.2-1.2,1.4-2c0.1-0.5,0.2-1.5,0.2-2.9V82.1z"/>
	<path clip-path="url(#SVGID_2_)" fill="#D9D2E9" d="M60.2,76.7l22.2-44.4h467l22.2,44.4l-22.2,44.4h-467L60.2,76.7z"/>
	<path clip-path="url(#SVGID_2_)" fill="none" stroke="#9900FF" stroke-linejoin="round" stroke-miterlimit="10" d="M60.2,76.7
		l22.2-44.4h467l22.2,44.4l-22.2,44.4h-467L60.2,76.7z"/>
	<path clip-path="url(#SVGID_2_)" d="M154.1,93l-8.3-31.5h4.3l4.8,20.7c0.5,2.2,1,4.3,1.3,6.4c0.8-3.4,1.3-5.3,1.4-5.8l6-21.2h5
		l4.5,15.9c1.1,4,1.9,7.7,2.4,11.1c0.4-2,0.9-4.3,1.6-6.8l4.9-20.3h4.2L177.6,93h-4l-6.6-24c-0.6-2-0.9-3.2-1-3.7
		c-0.3,1.4-0.6,2.7-0.9,3.7l-6.7,24H154.1z M204.5,85.7l4,0.5c-0.6,2.3-1.8,4.1-3.5,5.4c-1.7,1.3-3.9,1.9-6.5,1.9c-3.3,0-6-1-8-3.1
		c-1.9-2.1-2.9-4.9-2.9-8.7c0-3.9,1-6.8,2.9-8.9c2-2.1,4.6-3.2,7.7-3.2c3,0,5.5,1,7.4,3.1c1.9,2.1,2.9,5,2.9,8.7c0,0.2,0,0.6,0,1
		h-17c0.1,2.5,0.9,4.4,2.1,5.8c1.3,1.3,2.9,2,4.8,2c1.4,0,2.6-0.4,3.6-1.1C203.1,88.5,203.9,87.3,204.5,85.7z M191.8,79.4h12.7
		c-0.2-1.9-0.7-3.4-1.5-4.3c-1.2-1.5-2.8-2.2-4.8-2.2c-1.8,0-3.3,0.6-4.5,1.8C192.6,75.9,191.9,77.5,191.8,79.4z M216.8,93h-3.6
		V61.5h3.9v11.2c1.6-2,3.7-3.1,6.3-3.1c1.4,0,2.7,0.3,4,0.8c1.3,0.6,2.3,1.4,3.1,2.4c0.8,1,1.4,2.2,1.9,3.7c0.5,1.4,0.7,3,0.7,4.6
		c0,3.9-1,6.9-2.9,9.1c-1.9,2.1-4.2,3.2-7,3.2c-2.7,0-4.8-1.1-6.3-3.4V93z M216.8,81.5c0,2.7,0.4,4.7,1.1,5.9c1.2,2,2.8,3,4.9,3
		c1.7,0,3.2-0.7,4.4-2.2c1.2-1.5,1.8-3.7,1.8-6.6c0-3-0.6-5.2-1.8-6.6c-1.2-1.4-2.6-2.1-4.3-2.1c-1.7,0-3.1,0.7-4.4,2.2
		C217.4,76.6,216.8,78.7,216.8,81.5z M253,80.7V77h13.3v11.7c-2,1.6-4.1,2.9-6.3,3.7c-2.2,0.8-4.4,1.2-6.7,1.2c-3.1,0-5.9-0.7-8.4-2
		s-4.4-3.2-5.7-5.7c-1.3-2.5-1.9-5.3-1.9-8.4c0-3.1,0.6-5.9,1.9-8.6c1.3-2.7,3.1-4.6,5.5-5.9c2.4-1.3,5.2-2,8.3-2
		c2.3,0,4.3,0.4,6.2,1.1c1.8,0.7,3.3,1.8,4.3,3.1c1.1,1.3,1.9,3,2.4,5.1l-3.8,1c-0.5-1.6-1.1-2.8-1.8-3.8c-0.7-0.9-1.7-1.7-3-2.2
		c-1.3-0.5-2.7-0.8-4.3-0.8c-1.9,0-3.5,0.3-4.9,0.9c-1.4,0.6-2.5,1.3-3.4,2.3c-0.8,0.9-1.5,2-2,3.1c-0.8,1.9-1.2,4.1-1.2,6.3
		c0,2.8,0.5,5.1,1.4,7c1,1.9,2.4,3.3,4.2,4.2c1.8,0.9,3.8,1.4,5.9,1.4c1.8,0,3.5-0.3,5.3-1c1.7-0.7,3-1.5,3.9-2.2v-5.9H253z
		 M272.3,93V61.5h4.2v27.8h15.5V93H272.3z"/>
	<path clip-path="url(#SVGID_2_)" d="M296.7,93V61.5h13.4c3.4,0,5.8,0.3,7.3,0.8c1.5,0.6,2.7,1.6,3.6,3c0.9,1.4,1.4,3.1,1.4,5
		c0,2.4-0.7,4.3-2.1,5.9c-1.4,1.5-3.4,2.5-6.2,2.9c1.4,0.8,2.5,1.7,3.4,2.7c0.9,1,2.1,2.7,3.6,5.1L325,93h-7.6l-4.6-6.8
		c-1.6-2.5-2.8-4-3.4-4.6c-0.6-0.6-1.2-1.1-1.9-1.3c-0.7-0.2-1.7-0.4-3.2-0.4h-1.3V93H296.7z M303.1,74.9h4.7c3,0,4.9-0.1,5.7-0.4
		c0.8-0.3,1.4-0.7,1.8-1.4c0.4-0.6,0.7-1.4,0.7-2.4c0-1.1-0.3-1.9-0.8-2.5c-0.6-0.7-1.4-1.1-2.4-1.3c-0.5-0.1-2.1-0.1-4.6-0.1h-5
		V74.9z M341.6,85.8l6,1c-0.8,2.2-2,3.9-3.6,5c-1.7,1.2-3.8,1.7-6.3,1.7c-4,0-6.9-1.3-8.8-3.9c-1.5-2.1-2.2-4.7-2.2-7.8
		c0-3.8,1-6.7,2.9-8.9c2-2.1,4.5-3.2,7.5-3.2c3.4,0,6.1,1.1,8,3.4c2,2.2,2.9,5.7,2.8,10.3h-15.1c0,1.8,0.5,3.2,1.4,4.2
		c0.9,1,2.1,1.5,3.5,1.5c0.9,0,1.7-0.3,2.4-0.8C340.8,87.8,341.3,86.9,341.6,85.8z M342,79.7c0-1.7-0.5-3.1-1.4-4
		c-0.9-0.9-1.9-1.4-3.1-1.4c-1.3,0-2.4,0.5-3.3,1.4c-0.9,1-1.3,2.3-1.3,3.9H342z M373.6,93h-6V81.4c0-2.5-0.1-4-0.4-4.8
		c-0.2-0.7-0.7-1.3-1.3-1.7c-0.6-0.4-1.3-0.6-2.1-0.6c-1.1,0-2,0.3-2.8,0.9c-0.8,0.6-1.4,1.3-1.7,2.3c-0.3,0.9-0.4,2.7-0.4,5.2V93
		h-6V70.2h5.6v3.4c2-2.6,4.5-3.9,7.5-3.9c1.3,0,2.5,0.2,3.6,0.7c1.1,0.5,1.9,1.1,2.5,1.8c0.6,0.7,1,1.6,1.2,2.5
		c0.2,0.9,0.3,2.3,0.3,4V93z M400.7,93H395v-3.4c-0.9,1.3-2,2.3-3.3,2.9c-1.3,0.6-2.5,1-3.8,1c-2.6,0-4.9-1.1-6.7-3.2
		c-1.9-2.1-2.8-5.1-2.8-8.8c0-3.9,0.9-6.8,2.7-8.8c1.8-2,4.1-3,6.9-3c2.6,0,4.8,1.1,6.6,3.2V61.5h6V93z M384.5,81.1
		c0,2.4,0.3,4.2,1,5.3c1,1.6,2.3,2.4,4.1,2.4c1.4,0,2.6-0.6,3.5-1.8c1-1.2,1.5-3,1.5-5.3c0-2.6-0.5-4.5-1.4-5.7
		c-0.9-1.2-2.1-1.7-3.6-1.7c-1.4,0-2.6,0.6-3.6,1.7C385,77.2,384.5,78.9,384.5,81.1z M419.8,85.8l6,1c-0.8,2.2-2,3.9-3.6,5
		c-1.7,1.2-3.8,1.7-6.3,1.7c-4,0-6.9-1.3-8.8-3.9c-1.5-2.1-2.2-4.7-2.2-7.8c0-3.8,1-6.7,2.9-8.9c2-2.1,4.5-3.2,7.5-3.2
		c3.4,0,6.1,1.1,8,3.4c2,2.2,2.9,5.7,2.8,10.3H411c0,1.8,0.5,3.2,1.4,4.2c0.9,1,2.1,1.5,3.5,1.5c0.9,0,1.7-0.3,2.4-0.8
		C419,87.8,419.5,86.9,419.8,85.8z M420.1,79.7c0-1.7-0.5-3.1-1.4-4c-0.9-0.9-1.9-1.4-3.1-1.4c-1.3,0-2.4,0.5-3.3,1.4
		c-0.9,1-1.3,2.3-1.3,3.9H420.1z M436.8,93h-6V70.2h5.6v3.2c1-1.5,1.8-2.6,2.6-3c0.8-0.5,1.6-0.7,2.6-0.7c1.4,0,2.7,0.4,4,1.1
		l-1.9,5.3c-1-0.7-2-1-2.8-1c-0.8,0-1.5,0.2-2.1,0.7c-0.6,0.5-1.1,1.3-1.4,2.5c-0.3,1.2-0.5,3.7-0.5,7.6V93z M461.3,85.8l6,1
		c-0.8,2.2-2,3.9-3.6,5c-1.7,1.2-3.8,1.7-6.3,1.7c-4,0-6.9-1.3-8.8-3.9c-1.5-2.1-2.2-4.7-2.2-7.8c0-3.8,1-6.7,2.9-8.9
		c2-2.1,4.5-3.2,7.5-3.2c3.4,0,6.1,1.1,8,3.4c2,2.2,2.9,5.7,2.8,10.3h-15.1c0,1.8,0.5,3.2,1.4,4.2c0.9,1,2.1,1.5,3.5,1.5
		c0.9,0,1.7-0.3,2.4-0.8C460.5,87.8,461,86.9,461.3,85.8z M461.7,79.7c0-1.7-0.5-3.1-1.4-4c-0.9-0.9-1.9-1.4-3.1-1.4
		c-1.3,0-2.4,0.5-3.3,1.4c-0.9,1-1.3,2.3-1.3,3.9H461.7z M478.4,93h-6V70.2h5.6v3.2c1-1.5,1.8-2.6,2.6-3c0.8-0.5,1.6-0.7,2.6-0.7
		c1.4,0,2.7,0.4,4,1.1l-1.9,5.3c-1-0.7-2-1-2.8-1c-0.8,0-1.5,0.2-2.1,0.7c-0.6,0.5-1.1,1.3-1.4,2.5c-0.3,1.2-0.5,3.7-0.5,7.6V93z"/>
	<g clip-path="url(#SVGID_2_)">
		<text transform="matrix(1 0 0 1 637.8535 674.6927)" font-family="'MicrosoftYaHei'" font-size="39.283">MeshNormal</text>
	</g>
</g>
</svg>
